<?xml version="1.0" standalone="no"?><!DOCTYPE svg PUBLIC "-//W3C//DTD SVG 1.1//EN" "http://www.w3.org/Graphics/SVG/1.1/DTD/svg11.dtd"><svg height="1366" node-id="1" sillyvg="true" template-height="1366" template-width="1366" version="1.1" viewBox="0 0 1366 1366" width="1366" xmlns="http://www.w3.org/2000/svg" xmlns:xlink="http://www.w3.org/1999/xlink"><defs node-id="63"><clipPath id="clip0_386_741" node-id="60"><path d="M 0.00 0.00 L 1365.30 0.00 L 1365.30 1365.30 L 0.00 1365.30 Z" fill="#000000" fill-rule="nonzero" node-id="66" stroke="none" target-height="1365.3" target-width="1365.3" target-x="0" target-y="0"></path></clipPath></defs><g clip-path="url(#clip0_386_741)" id="sillyvg_g_0" node-id="70"><path d="M 0.00 0.00 L 1365.30 0.00 L 1365.30 1365.30 L 0.00 1365.30 L 0.00 0.00 Z M 635.90 120.60 L 616.20 122.60 L 596.60 125.20 L 577.10 128.50 L 557.70 132.20 L 538.40 136.60 L 519.20 141.50 L 502.10 146.40 L 485.20 151.90 L 468.40 158.00 L 455.90 162.90 L 431.60 173.70 L 419.60 179.60 L 407.90 186.00 L 396.40 192.70 L 385.10 199.90 L 374.10 207.50 L 363.80 215.30 L 353.80 223.50 L 344.10 232.10 L 334.70 241.10 L 325.80 250.50 L 317.30 260.30 L 311.20 267.90 L 300.10 283.80 L 295.00 292.10 L 289.90 301.10 L 287.60 305.80 L 286.00 310.70 L 286.20 313.10 L 286.70 314.00 L 287.90 315.10 L 289.50 315.70 L 291.20 315.80 L 292.90 315.30 L 297.10 313.20 L 301.10 310.70 L 304.80 307.80 L 323.00 291.90 L 330.80 285.90 L 347.10 274.90 L 364.10 265.00 L 377.20 258.10 L 390.50 251.60 L 405.60 245.00 L 420.80 238.80 L 436.30 233.10 L 452.00 227.80 L 467.80 223.00 L 483.70 218.80 L 499.80 215.00 L 516.00 211.70 L 532.20 208.80 L 548.60 206.50 L 564.90 204.60 L 581.40 203.30 L 600.30 202.30 L 619.10 201.90 L 638.00 202.10 L 656.80 202.80 L 675.70 204.10 L 694.40 206.00 L 713.10 208.40 L 731.80 211.40 L 750.30 214.90 L 768.70 219.00 L 787.00 223.60 L 805.20 228.80 L 823.70 234.80 L 842.10 241.50 L 860.20 248.60 L 878.10 256.40 L 895.80 264.70 L 913.20 273.50 L 930.30 282.80 L 953.50 296.40 L 959.40 300.80 L 957.90 303.30 L 955.80 308.70 L 954.40 317.20 L 873.30 464.40 L 867.00 474.90 L 861.50 464.00 L 844.10 431.60 L 838.60 420.70 L 833.70 409.50 L 836.20 405.60 L 840.60 400.10 L 844.90 392.80 L 847.40 387.20 L 849.40 381.30 L 850.80 375.30 L 851.80 369.20 L 852.20 363.00 L 852.10 356.80 L 851.50 350.70 L 850.30 344.60 L 848.70 338.60 L 846.50 332.90 L 843.80 327.30 L 840.70 322.00 L 837.00 317.10 L 832.80 312.50 L 829.00 309.20 L 825.00 306.30 L 820.80 303.90 L 816.30 301.90 L 811.60 300.30 L 806.80 299.10 L 801.80 298.40 L 796.90 298.00 L 783.40 298.40 L 780.60 298.10 L 774.20 291.40 L 767.50 285.00 L 760.50 279.00 L 753.20 273.30 L 745.70 267.80 L 735.90 261.50 L 725.90 255.70 L 715.60 250.50 L 705.10 245.70 L 694.50 241.70 L 683.90 238.30 L 673.10 235.40 L 662.10 233.20 L 650.90 231.60 L 639.80 230.50 L 628.60 229.90 L 606.60 229.90 L 595.80 230.30 L 585.10 231.20 L 574.40 232.50 L 563.80 234.30 L 553.20 236.40 L 542.70 239.10 L 532.40 242.10 L 522.20 245.60 L 499.90 254.70 L 487.90 260.40 L 476.10 266.60 L 453.20 280.20 L 438.60 289.60 L 437.40 289.90 L 436.30 289.80 L 429.10 286.10 L 423.00 283.70 L 416.60 281.70 L 410.10 280.30 L 403.50 279.50 L 396.80 279.20 L 386.90 280.10 L 377.30 282.40 L 372.70 284.10 L 368.30 286.20 L 364.10 288.80 L 356.00 295.10 L 352.40 298.70 L 349.20 302.50 L 346.20 306.70 L 343.70 311.10 L 339.60 320.30 L 338.10 325.20 L 336.10 335.20 L 335.70 340.30 L 335.70 350.60 L 336.30 355.70 L 337.30 360.80 L 338.70 365.70 L 340.60 370.50 L 342.90 375.20 L 345.50 379.70 L 348.40 383.90 L 351.70 387.90 L 337.60 411.80 L 330.70 424.40 L 327.80 428.60 L 318.40 440.60 L 310.70 452.50 L 306.30 460.50 L 302.30 468.80 L 298.90 477.30 L 297.00 483.00 L 294.30 494.90 L 293.30 507.70 L 293.40 514.10 L 293.90 520.60 L 295.90 533.20 L 298.00 541.20 L 300.40 549.00 L 303.20 556.60 L 306.50 564.10 L 310.10 571.40 L 314.10 578.60 L 318.50 585.50 L 323.20 592.20 L 328.20 598.60 L 333.50 604.80 L 339.20 610.70 L 345.10 616.30 L 352.40 622.80 L 367.70 634.70 L 375.70 640.20 L 386.60 647.00 L 397.90 653.40 L 409.40 659.20 L 394.60 684.50 L 390.00 693.10 L 383.20 706.70 L 376.90 720.50 L 371.10 734.60 L 365.80 748.80 L 361.00 763.20 L 356.80 777.80 L 352.90 792.40 L 349.50 807.30 L 346.60 822.20 L 344.00 837.20 L 341.90 852.20 L 340.10 867.30 L 338.00 890.40 L 336.40 913.60 L 335.30 936.90 L 332.60 1006.60 L 330.10 1053.30 L 329.20 1076.60 L 328.70 1100.00 L 329.00 1111.10 L 330.00 1118.50 L 331.00 1122.00 L 332.00 1124.20 L 333.30 1126.00 L 335.00 1127.50 L 338.00 1129.40 L 341.10 1130.80 L 349.50 1133.70 L 358.00 1136.30 L 375.20 1140.20 L 392.70 1142.90 L 392.50 1144.50 L 383.50 1145.20 L 374.50 1146.40 L 356.70 1149.00 L 329.00 1153.80 L 315.30 1156.60 L 301.60 1159.90 L 283.70 1165.10 L 274.80 1168.30 L 266.50 1172.00 L 258.40 1176.40 L 254.70 1179.10 L 251.40 1182.30 L 249.30 1185.50 L 248.40 1189.20 L 248.70 1193.00 L 250.20 1196.50 L 254.70 1201.30 L 258.50 1204.20 L 266.70 1208.70 L 275.50 1212.50 L 287.90 1216.50 L 300.50 1220.20 L 313.20 1223.30 L 338.90 1228.50 L 351.80 1230.70 L 390.70 1236.40 L 420.20 1239.80 L 449.80 1242.80 L 479.40 1245.30 L 538.60 1248.90 L 568.30 1250.20 L 612.80 1251.50 L 657.40 1252.30 L 703.40 1252.40 L 749.40 1252.10 L 810.80 1250.60 L 875.10 1247.60 L 908.90 1245.40 L 953.70 1241.60 L 976.10 1239.20 L 998.50 1236.40 L 1020.80 1233.30 L 1055.60 1227.40 L 1080.70 1222.00 L 1101.20 1216.20 L 1117.20 1210.40 L 1125.40 1206.40 L 1129.40 1204.10 L 1133.10 1201.50 L 1137.40 1197.20 L 1139.10 1194.70 L 1139.80 1192.40 L 1139.90 1190.20 L 1139.70 1188.10 L 1138.10 1184.00 L 1134.50 1179.70 L 1131.90 1177.60 L 1127.40 1174.80 L 1118.00 1169.90 L 1110.70 1166.90 L 1103.20 1164.20 L 1082.70 1158.50 L 1066.40 1155.10 L 1055.80 1152.10 L 1064.50 1148.10 L 1073.00 1143.80 L 1081.30 1139.10 L 1089.40 1134.00 L 1097.30 1128.60 L 1104.90 1122.90 L 1112.30 1116.80 L 1119.40 1110.50 L 1126.20 1103.80 L 1132.60 1096.80 L 1138.80 1089.50 L 1144.70 1082.00 L 1150.10 1073.90 L 1155.10 1065.60 L 1159.60 1057.00 L 1163.50 1048.10 L 1166.90 1039.00 L 1169.90 1029.70 L 1172.30 1020.30 L 1174.20 1010.80 L 1175.60 1001.20 L 1176.50 990.90 L 1176.80 980.60 L 1176.20 966.80 L 1174.30 953.10 L 1172.70 946.40 L 1170.80 939.80 L 1168.30 934.10 L 1166.80 931.40 L 1164.90 928.90 L 1161.80 926.30 L 1157.90 924.50 L 1155.80 924.00 L 1150.30 924.20 L 1144.00 926.20 L 1141.10 927.70 L 1133.80 933.10 L 1130.50 936.20 L 1125.90 941.20 L 1107.70 965.10 L 1095.30 979.80 L 1088.70 986.80 L 1081.80 993.40 L 1074.60 999.80 L 1068.10 1004.80 L 1056.50 1012.40 L 1046.70 1017.30 L 1041.50 1019.30 L 1036.20 1020.80 L 1030.80 1021.90 L 1025.70 1022.30 L 1015.70 1022.10 L 1008.20 1021.30 L 991.80 1018.60 L 986.10 1016.70 L 983.40 1015.30 L 979.60 1012.50 L 976.00 1009.40 L 963.60 997.10 L 953.00 985.20 L 948.20 978.70 L 942.20 969.20 L 936.60 959.40 L 926.20 939.30 L 915.40 916.60 L 910.20 905.10 L 905.50 893.50 L 900.10 877.60 L 898.00 869.50 L 895.00 856.50 L 890.20 830.20 L 882.30 774.80 L 879.70 759.10 L 876.70 743.40 L 873.20 727.90 L 870.50 717.60 L 864.00 697.30 L 860.00 686.80 L 855.40 676.40 L 852.00 669.70 L 848.20 663.20 L 844.10 656.90 L 839.60 650.90 L 834.60 645.20 L 829.20 639.90 L 848.60 625.80 L 854.60 620.90 L 860.30 615.60 L 865.70 609.90 L 870.80 603.90 L 875.50 597.60 L 879.70 591.00 L 883.50 584.10 L 886.70 577.00 L 889.30 569.70 L 890.90 564.10 L 892.10 558.40 L 892.90 552.60 L 893.60 543.60 L 893.10 531.20 L 893.20 528.10 L 894.20 525.40 L 1000.40 332.80 L 1002.70 332.20 L 1004.80 331.10 L 1006.70 329.80 L 1008.30 328.10 L 1009.50 326.20 L 1010.40 324.10 L 1010.90 321.80 L 1010.90 319.50 L 1010.30 317.10 L 1022.20 294.10 L 1058.80 225.50 L 1062.30 217.50 L 1063.00 214.60 L 1062.60 212.10 L 1060.70 207.40 L 1058.50 204.20 L 1055.90 201.50 L 1051.60 198.10 L 1047.10 195.20 L 1040.60 192.00 L 1034.20 190.10 L 1031.10 190.00 L 1028.00 190.30 L 1025.20 191.30 L 1021.90 193.60 L 1018.70 198.20 L 1010.60 213.60 L 996.80 204.80 L 982.70 196.50 L 968.40 188.50 L 953.80 181.00 L 939.00 173.90 L 924.10 167.20 L 909.00 160.80 L 893.70 154.90 L 877.00 148.90 L 860.20 143.50 L 843.30 138.60 L 826.20 134.20 L 808.90 130.40 L 791.50 127.10 L 774.00 124.30 L 756.50 122.10 L 738.90 120.40 L 721.30 119.20 L 707.10 118.40 L 692.80 118.10 L 678.60 118.30 L 657.20 119.20 L 635.90 120.60 Z" fill="#fcfcfc" fill-rule="nonzero" node-id="72" stroke="none" target-height="1365.3" target-width="1365.3" target-x="0" target-y="0"></path><path d="M 641.40 132.60 L 670.70 131.10 L 685.30 130.80 L 699.90 130.90 L 729.20 131.90 L 716.60 141.80 L 710.60 147.20 L 704.80 152.80 L 699.30 158.60 L 694.10 164.80 L 689.30 171.20 L 685.00 177.90 L 677.40 191.10 L 672.30 191.40 L 654.10 190.20 L 635.80 189.60 L 617.60 189.50 L 599.30 190.00 L 581.00 191.10 L 562.80 192.70 L 544.70 194.90 L 526.60 197.70 L 508.60 201.00 L 490.80 204.90 L 473.10 209.40 L 455.50 214.40 L 455.40 209.00 L 455.90 203.70 L 457.00 198.40 L 458.60 193.30 L 462.90 183.50 L 466.90 176.40 L 471.60 169.20 L 485.30 164.20 L 513.00 155.40 L 527.00 151.60 L 545.80 147.00 L 564.70 143.00 L 583.80 139.60 L 602.90 136.70 L 622.20 134.40 L 641.40 132.60 Z" fill="#fcfcfc" fill-rule="nonzero" node-id="74" stroke="none" target-height="83.59999" target-width="273.80002" target-x="455.4" target-y="130.8"></path><path d="M 430.80 444.00 L 432.20 443.70 L 435.00 444.10 L 436.90 445.00 L 438.50 446.50 L 439.70 448.30 L 440.30 450.30 L 440.50 451.70 L 439.70 454.50 L 438.70 456.00 L 437.40 457.10 L 435.80 457.90 L 432.30 458.40 L 430.50 458.00 L 428.80 457.40 L 427.40 456.40 L 426.30 455.00 L 425.60 452.80 L 425.50 450.60 L 426.00 448.40 L 427.10 446.40 L 428.10 445.30 L 430.80 444.00 Z" fill="#fcfcfc" fill-rule="nonzero" node-id="76" stroke="none" target-height="14.699982" target-width="15" target-x="425.5" target-y="443.7"></path><path d="M 646.70 457.20 L 648.80 456.60 L 650.90 456.60 L 652.90 457.10 L 654.70 458.10 L 656.30 459.50 L 657.50 461.20 L 658.20 463.90 L 657.70 467.10 L 656.90 468.60 L 654.20 470.80 L 650.80 471.70 L 649.10 471.60 L 647.40 471.20 L 645.90 470.30 L 644.40 469.10 L 643.40 467.50 L 642.00 464.00 L 643.10 461.30 L 644.50 458.90 L 646.70 457.20 Z" fill="#fcfcfc" fill-rule="nonzero" node-id="78" stroke="none" target-height="15.100006" target-width="16.200012" target-x="642" target-y="456.6"></path><path d="M 467.10 470.90 L 474.10 469.20 L 488.50 466.90 L 499.30 466.00 L 510.30 465.70 L 532.10 466.10 L 546.20 467.30 L 560.20 468.90 L 569.50 470.40 L 587.90 474.20 L 600.40 477.40 L 606.50 479.40 L 612.40 482.00 L 615.40 489.80 L 618.70 495.20 L 620.70 497.60 L 625.40 501.80 L 628.10 503.60 L 634.40 506.40 L 638.00 507.20 L 641.70 507.40 L 645.40 507.20 L 649.00 506.50 L 652.60 505.30 L 656.00 503.70 L 659.10 501.80 L 662.00 499.40 L 666.10 503.60 L 669.90 508.10 L 676.70 517.80 L 665.30 518.40 L 654.00 519.70 L 652.80 520.20 L 652.00 521.00 L 651.60 522.10 L 651.80 524.30 L 652.40 525.20 L 653.30 525.80 L 654.70 525.90 L 667.60 524.80 L 680.60 524.20 L 683.70 540.20 L 686.30 542.20 L 663.00 539.40 L 657.20 539.10 L 651.30 539.30 L 650.60 541.70 L 650.70 542.80 L 651.10 543.90 L 652.00 544.60 L 653.30 545.00 L 683.50 548.80 L 681.80 559.90 L 680.90 563.50 L 678.10 570.40 L 664.30 564.90 L 657.00 563.10 L 656.00 568.50 L 674.70 576.20 L 672.40 580.60 L 669.70 584.60 L 666.60 588.40 L 656.10 598.80 L 649.70 603.90 L 642.90 608.40 L 635.90 612.40 L 628.60 616.00 L 621.20 619.20 L 605.70 624.50 L 590.00 628.40 L 579.70 630.20 L 558.80 632.70 L 548.40 633.40 L 537.80 633.60 L 516.90 633.00 L 497.30 631.00 L 488.20 629.40 L 479.30 627.40 L 470.40 625.00 L 461.70 622.10 L 453.10 618.90 L 444.60 615.30 L 436.30 611.30 L 430.10 607.80 L 424.10 604.00 L 418.40 599.70 L 412.90 595.10 L 407.80 590.10 L 403.10 584.80 L 398.80 579.10 L 394.90 573.10 L 416.60 562.50 L 417.60 561.50 L 418.20 560.10 L 418.50 558.50 L 415.10 556.90 L 414.20 556.80 L 408.30 559.10 L 394.00 565.80 L 392.10 566.20 L 390.20 555.70 L 388.70 545.20 L 409.40 540.80 L 410.30 540.00 L 410.90 538.90 L 410.90 536.60 L 410.40 535.70 L 409.10 535.20 L 395.90 537.10 L 383.90 539.70 L 388.90 538.00 L 389.90 531.80 L 392.90 519.60 L 408.10 520.30 L 411.90 520.00 L 415.60 519.10 L 415.20 514.30 L 395.60 513.10 L 385.70 512.90 L 375.90 513.30 L 395.90 512.40 L 401.00 503.60 L 404.00 499.50 L 407.40 495.80 L 409.90 493.60 L 412.70 491.70 L 415.70 490.20 L 419.30 491.50 L 422.90 492.20 L 426.50 492.30 L 430.10 491.90 L 433.60 491.00 L 437.10 489.70 L 440.30 487.90 L 443.30 485.90 L 446.10 483.40 L 448.60 480.70 L 450.80 477.70 L 452.50 474.50 L 459.90 473.00 L 467.10 470.90 Z M 491.90 475.80 L 488.50 478.30 L 486.20 481.80 L 485.00 485.90 L 484.90 489.00 L 485.40 492.20 L 488.40 500.10 L 490.40 503.80 L 495.40 510.70 L 498.30 513.70 L 501.60 516.50 L 505.10 518.80 L 508.80 520.80 L 510.40 528.50 L 511.60 536.20 L 512.20 544.00 L 506.60 550.70 L 503.30 553.70 L 499.60 556.20 L 494.40 558.60 L 491.60 559.30 L 488.80 559.50 L 485.90 559.30 L 482.90 558.50 L 480.10 557.50 L 477.80 556.00 L 473.90 551.90 L 470.90 547.10 L 466.50 547.70 L 464.90 549.20 L 463.80 551.90 L 464.10 555.30 L 465.90 559.20 L 470.20 564.20 L 473.80 567.00 L 476.30 568.60 L 481.80 570.90 L 484.70 571.50 L 487.60 571.80 L 490.70 571.60 L 494.30 571.00 L 497.70 570.00 L 501.00 568.70 L 505.70 566.10 L 510.10 563.00 L 514.20 559.40 L 518.00 555.60 L 523.80 561.90 L 527.00 564.80 L 530.50 567.40 L 534.20 569.60 L 538.10 571.40 L 542.10 572.80 L 546.30 573.60 L 550.70 573.80 L 555.90 573.50 L 560.90 571.80 L 565.30 568.90 L 567.20 567.10 L 570.20 562.80 L 571.20 560.40 L 571.70 557.90 L 571.90 555.20 L 571.20 552.70 L 569.10 550.80 L 567.30 550.20 L 563.60 550.00 L 562.60 551.90 L 560.20 558.00 L 559.10 559.80 L 557.40 561.30 L 554.10 562.80 L 549.70 563.00 L 547.00 562.40 L 541.90 560.60 L 537.90 558.40 L 534.10 555.70 L 531.80 553.60 L 528.00 548.80 L 526.60 546.10 L 525.50 543.20 L 524.90 540.20 L 523.20 526.00 L 523.00 521.30 L 528.50 519.00 L 533.80 516.30 L 538.90 513.20 L 543.80 509.70 L 548.40 505.90 L 552.70 501.80 L 555.10 498.90 L 557.20 495.70 L 559.20 491.10 L 559.80 486.20 L 559.50 483.80 L 558.70 481.30 L 556.10 478.90 L 553.20 477.10 L 546.70 474.50 L 539.90 472.80 L 531.90 471.40 L 523.70 470.40 L 518.20 470.20 L 512.80 470.30 L 507.40 470.80 L 502.10 471.90 L 496.90 473.50 L 491.90 475.80 Z" fill="#fcfcfc" fill-rule="nonzero" node-id="80" stroke="none" target-height="167.89996" target-width="310.4" target-x="375.9" target-y="465.7"></path><path d="M 635.90 120.60 L 657.20 119.20 L 678.60 118.30 L 692.80 118.10 L 707.10 118.40 L 721.30 119.20 L 738.90 120.40 L 756.50 122.10 L 774.00 124.30 L 791.50 127.10 L 808.90 130.40 L 826.20 134.20 L 843.30 138.60 L 860.20 143.50 L 877.00 148.90 L 893.70 154.90 L 909.00 160.80 L 924.10 167.20 L 939.00 173.90 L 953.80 181.00 L 968.40 188.50 L 982.70 196.50 L 996.80 204.80 L 1010.60 213.60 L 1018.70 198.20 L 1021.90 193.60 L 1025.20 191.30 L 1028.00 190.30 L 1031.10 190.00 L 1034.20 190.10 L 1037.10 190.90 L 1040.60 192.00 L 1047.10 195.20 L 1051.60 198.10 L 1055.90 201.50 L 1058.50 204.20 L 1060.70 207.40 L 1061.80 209.70 L 1063.00 214.60 L 1061.30 220.20 L 1058.80 225.50 L 1022.20 294.10 L 1010.30 317.10 L 1010.90 319.50 L 1010.90 321.80 L 1010.40 324.10 L 1009.50 326.20 L 1008.30 328.10 L 1006.70 329.80 L 1004.80 331.10 L 1002.70 332.20 L 1000.40 332.80 L 894.20 525.40 L 893.20 528.10 L 893.10 531.20 L 893.60 543.60 L 892.90 552.60 L 892.10 558.40 L 890.90 564.10 L 889.30 569.70 L 886.70 577.00 L 883.50 584.10 L 879.70 591.00 L 875.50 597.60 L 870.80 603.90 L 865.70 609.90 L 860.30 615.60 L 854.60 620.90 L 848.60 625.80 L 829.20 639.90 L 834.60 645.20 L 839.60 650.90 L 844.10 656.90 L 848.20 663.20 L 852.00 669.70 L 855.40 676.40 L 860.00 686.80 L 864.00 697.30 L 870.50 717.60 L 873.20 727.90 L 876.70 743.40 L 879.70 759.10 L 882.30 774.80 L 890.20 830.20 L 895.00 856.50 L 898.00 869.50 L 900.10 877.60 L 905.50 893.50 L 910.20 905.10 L 915.40 916.60 L 926.20 939.30 L 936.60 959.40 L 942.20 969.20 L 948.20 978.70 L 953.00 985.20 L 963.60 997.10 L 976.00 1009.40 L 983.40 1015.30 L 988.90 1017.80 L 994.70 1019.20 L 1000.70 1020.20 L 1015.70 1022.10 L 1025.70 1022.30 L 1030.80 1021.90 L 1036.20 1020.80 L 1041.50 1019.30 L 1051.70 1015.00 L 1061.30 1009.60 L 1068.10 1004.80 L 1074.60 999.80 L 1081.80 993.40 L 1088.70 986.80 L 1095.30 979.80 L 1107.70 965.10 L 1125.90 941.20 L 1130.50 936.20 L 1133.80 933.10 L 1141.10 927.70 L 1147.10 925.00 L 1150.30 924.20 L 1153.60 923.90 L 1155.80 924.00 L 1160.00 925.30 L 1163.50 927.50 L 1166.80 931.40 L 1169.60 936.90 L 1172.70 946.40 L 1174.30 953.10 L 1176.20 966.80 L 1176.80 980.60 L 1176.50 990.90 L 1175.60 1001.20 L 1174.20 1010.80 L 1172.30 1020.30 L 1169.90 1029.70 L 1166.90 1039.00 L 1163.50 1048.10 L 1159.60 1057.00 L 1155.10 1065.60 L 1150.10 1073.90 L 1144.70 1082.00 L 1138.80 1089.50 L 1132.60 1096.80 L 1126.20 1103.80 L 1119.40 1110.50 L 1112.30 1116.80 L 1104.90 1122.90 L 1097.30 1128.60 L 1089.40 1134.00 L 1081.30 1139.10 L 1073.00 1143.80 L 1064.50 1148.10 L 1055.80 1152.10 L 1037.40 1158.80 L 1028.00 1161.60 L 1013.70 1165.20 L 999.30 1168.30 L 970.20 1173.10 L 966.70 1175.00 L 960.60 1180.50 L 956.00 1183.80 L 951.20 1186.60 L 946.20 1188.90 L 940.90 1190.80 L 930.00 1193.40 L 921.70 1194.60 L 902.50 1196.10 L 891.60 1196.20 L 880.80 1195.90 L 848.20 1193.50 L 823.30 1190.80 L 798.50 1187.30 L 796.30 1191.50 L 793.70 1195.30 L 790.80 1198.90 L 784.10 1205.20 L 776.40 1210.40 L 772.30 1212.50 L 766.50 1214.90 L 760.60 1216.60 L 754.60 1217.80 L 746.40 1218.90 L 738.20 1219.50 L 729.90 1219.60 L 721.60 1219.30 L 713.40 1218.60 L 705.20 1217.50 L 698.90 1216.20 L 688.50 1213.10 L 680.60 1209.40 L 677.00 1207.00 L 673.70 1204.40 L 670.60 1201.30 L 667.80 1197.90 L 665.50 1194.20 L 661.60 1186.30 L 649.90 1186.60 L 638.30 1186.40 L 626.60 1185.80 L 609.20 1184.30 L 591.80 1182.40 L 575.20 1180.00 L 558.80 1177.10 L 542.40 1173.70 L 526.20 1169.70 L 504.60 1207.20 L 501.70 1211.40 L 500.00 1213.30 L 498.10 1215.00 L 495.90 1216.20 L 493.40 1217.00 L 487.20 1217.40 L 479.30 1216.30 L 474.80 1215.00 L 472.00 1213.60 L 469.50 1211.80 L 465.40 1207.20 L 461.70 1202.20 L 457.30 1203.50 L 452.90 1204.30 L 448.40 1204.70 L 439.30 1204.40 L 434.70 1203.70 L 425.90 1201.30 L 419.40 1198.40 L 415.70 1195.20 L 413.00 1191.10 L 412.00 1188.80 L 411.00 1183.90 L 410.90 1177.50 L 411.30 1173.60 L 413.30 1162.00 L 413.60 1158.20 L 413.60 1154.30 L 411.40 1144.30 L 398.90 1143.70 L 383.90 1141.70 L 375.20 1140.20 L 358.00 1136.30 L 349.50 1133.70 L 341.10 1130.80 L 338.00 1129.40 L 335.00 1127.50 L 333.30 1126.00 L 332.00 1124.20 L 331.00 1122.00 L 329.30 1114.80 L 328.80 1107.40 L 328.70 1100.00 L 329.20 1076.60 L 330.10 1053.30 L 332.60 1006.60 L 336.40 913.60 L 338.00 890.40 L 340.10 867.30 L 341.90 852.20 L 344.00 837.20 L 346.60 822.20 L 349.50 807.30 L 352.90 792.40 L 356.80 777.80 L 361.00 763.20 L 365.80 748.80 L 371.10 734.60 L 376.90 720.50 L 383.20 706.70 L 390.00 693.10 L 394.60 684.50 L 409.40 659.20 L 397.90 653.40 L 386.60 647.00 L 375.70 640.20 L 367.70 634.70 L 352.40 622.80 L 339.20 610.70 L 333.50 604.80 L 328.20 598.60 L 323.20 592.20 L 318.50 585.50 L 314.10 578.60 L 310.10 571.40 L 306.50 564.10 L 303.20 556.60 L 300.40 549.00 L 298.00 541.20 L 295.90 533.20 L 294.70 526.90 L 293.40 514.10 L 293.30 507.70 L 294.30 494.90 L 297.00 483.00 L 298.90 477.30 L 302.30 468.80 L 306.30 460.50 L 310.70 452.50 L 318.40 440.60 L 327.80 428.60 L 330.70 424.40 L 337.60 411.80 L 351.70 387.90 L 348.40 383.90 L 345.50 379.70 L 342.90 375.20 L 340.60 370.50 L 338.70 365.70 L 337.30 360.80 L 336.30 355.70 L 335.70 350.60 L 335.70 340.30 L 336.10 335.20 L 338.10 325.20 L 339.60 320.30 L 343.70 311.10 L 346.20 306.70 L 349.20 302.50 L 352.40 298.70 L 356.00 295.10 L 364.10 288.80 L 368.30 286.20 L 372.70 284.10 L 377.30 282.40 L 386.90 280.10 L 396.80 279.20 L 403.50 279.50 L 410.10 280.30 L 416.60 281.70 L 423.00 283.70 L 429.10 286.10 L 436.30 289.80 L 437.40 289.90 L 438.60 289.60 L 453.20 280.20 L 476.10 266.60 L 487.90 260.40 L 499.90 254.70 L 522.20 245.60 L 532.40 242.10 L 542.70 239.10 L 553.20 236.40 L 563.80 234.30 L 574.40 232.50 L 585.10 231.20 L 595.80 230.30 L 606.60 229.90 L 628.60 229.90 L 639.80 230.50 L 650.90 231.60 L 662.10 233.20 L 673.10 235.40 L 683.90 238.30 L 694.50 241.70 L 705.10 245.70 L 715.60 250.50 L 725.90 255.70 L 735.90 261.50 L 745.70 267.80 L 753.20 273.30 L 760.50 279.00 L 767.50 285.00 L 774.20 291.40 L 780.60 298.10 L 783.40 298.40 L 796.90 298.00 L 801.80 298.40 L 806.80 299.10 L 811.60 300.30 L 816.30 301.90 L 820.80 303.90 L 825.00 306.30 L 829.00 309.20 L 832.80 312.50 L 837.00 317.10 L 840.70 322.00 L 843.80 327.30 L 846.50 332.90 L 848.70 338.60 L 850.30 344.60 L 851.50 350.70 L 852.10 356.80 L 852.20 363.00 L 851.80 369.20 L 850.80 375.30 L 849.40 381.30 L 847.40 387.20 L 844.90 392.80 L 840.60 400.10 L 836.20 405.60 L 833.70 409.50 L 838.60 420.70 L 844.10 431.60 L 861.50 464.00 L 867.00 474.90 L 873.30 464.40 L 954.40 317.20 L 955.80 308.70 L 957.90 303.30 L 959.40 300.80 L 953.50 296.40 L 930.30 282.80 L 913.20 273.50 L 895.80 264.70 L 878.10 256.40 L 860.20 248.60 L 842.10 241.50 L 823.70 234.80 L 805.20 228.80 L 787.00 223.60 L 768.70 219.00 L 750.30 214.90 L 731.80 211.40 L 713.10 208.40 L 694.40 206.00 L 675.70 204.10 L 656.80 202.80 L 638.00 202.10 L 619.10 201.90 L 600.30 202.30 L 581.40 203.30 L 564.90 204.60 L 548.60 206.50 L 532.20 208.80 L 516.00 211.70 L 499.80 215.00 L 483.70 218.80 L 467.80 223.00 L 452.00 227.80 L 436.30 233.10 L 420.80 238.80 L 405.60 245.00 L 390.50 251.60 L 377.20 258.10 L 364.10 265.00 L 347.10 274.90 L 330.80 285.90 L 323.00 291.90 L 304.80 307.80 L 301.10 310.70 L 297.10 313.20 L 292.90 315.30 L 291.20 315.80 L 289.50 315.70 L 287.90 315.10 L 286.70 314.00 L 286.20 313.10 L 286.00 310.70 L 287.60 305.80 L 289.90 301.10 L 295.00 292.10 L 300.10 283.80 L 311.20 267.90 L 317.30 260.30 L 325.80 250.50 L 334.70 241.10 L 344.10 232.10 L 353.80 223.50 L 363.80 215.30 L 374.10 207.50 L 385.10 199.90 L 396.40 192.70 L 407.90 186.00 L 419.60 179.60 L 431.60 173.70 L 455.90 162.90 L 468.40 158.00 L 485.20 151.90 L 502.10 146.40 L 519.20 141.50 L 538.40 136.60 L 557.70 132.20 L 577.10 128.50 L 596.60 125.20 L 616.20 122.60 L 635.90 120.60 Z M 641.40 132.60 L 622.20 134.40 L 602.90 136.70 L 583.80 139.60 L 564.70 143.00 L 545.80 147.00 L 527.00 151.60 L 513.00 155.40 L 485.30 164.20 L 471.60 169.20 L 471.30 169.70 L 465.50 171.50 L 440.10 182.50 L 427.60 188.60 L 415.30 195.10 L 403.40 202.00 L 391.70 209.40 L 383.10 215.20 L 366.60 227.80 L 350.30 242.10 L 342.20 249.90 L 334.40 258.00 L 326.90 266.40 L 319.90 275.30 L 313.40 284.40 L 325.70 275.10 L 341.90 264.60 L 364.20 251.80 L 376.70 245.40 L 389.50 239.30 L 402.40 233.60 L 415.50 228.30 L 428.70 223.40 L 455.50 214.70 L 455.50 214.40 L 473.10 209.40 L 490.80 204.90 L 508.60 201.00 L 526.60 197.70 L 544.70 194.90 L 562.80 192.70 L 581.00 191.10 L 599.30 190.00 L 617.60 189.50 L 635.80 189.60 L 654.10 190.20 L 672.30 191.40 L 705.30 195.10 L 722.00 197.50 L 738.70 200.40 L 755.20 203.70 L 771.70 207.40 L 788.10 211.50 L 804.30 216.10 L 820.50 221.10 L 836.40 226.60 L 852.20 232.60 L 879.70 244.10 L 914.50 260.90 L 914.40 261.30 L 927.90 268.20 L 941.10 275.50 L 964.80 290.00 L 968.50 291.90 L 977.30 274.70 L 1004.80 223.50 L 991.60 215.10 L 978.00 207.20 L 950.40 192.30 L 934.40 184.60 L 918.30 177.30 L 902.00 170.60 L 885.40 164.30 L 868.70 158.50 L 851.80 153.30 L 834.70 148.50 L 817.50 144.40 L 802.90 141.40 L 773.60 136.50 L 758.80 134.60 L 729.20 131.90 L 699.90 130.90 L 685.30 130.80 L 670.70 131.10 L 641.40 132.60 Z M 1020.60 216.50 L 979.90 293.70 L 984.10 295.30 L 991.90 299.30 L 997.50 302.90 L 1002.70 307.00 L 1051.40 214.40 L 1049.90 211.80 L 1048.00 209.60 L 1045.90 207.60 L 1042.40 205.20 L 1038.40 203.30 L 1030.20 200.60 L 1026.40 205.50 L 1020.60 216.50 Z M 562.70 246.40 L 553.40 248.30 L 544.20 250.60 L 535.10 253.20 L 526.20 256.30 L 514.40 260.90 L 502.90 265.90 L 491.60 271.40 L 477.90 278.80 L 464.50 286.60 L 455.80 292.20 L 447.30 298.10 L 439.00 304.30 L 429.40 312.90 L 420.10 321.90 L 411.20 331.30 L 394.30 350.80 L 378.70 369.90 L 371.60 379.20 L 364.90 388.80 L 358.70 398.70 L 340.20 430.00 L 336.30 436.10 L 325.60 451.10 L 320.70 458.90 L 316.20 466.90 L 313.60 472.50 L 309.30 483.90 L 307.80 489.60 L 306.80 495.40 L 306.10 501.30 L 305.90 510.10 L 306.20 518.90 L 307.90 520.30 L 338.50 515.70 L 342.70 502.50 L 345.30 496.00 L 351.10 485.20 L 359.50 471.50 L 359.10 469.10 L 356.30 459.70 L 355.90 457.30 L 355.40 451.30 L 355.30 445.40 L 355.70 439.50 L 356.60 433.60 L 357.90 427.80 L 359.60 422.10 L 361.70 416.50 L 364.20 411.10 L 367.10 405.90 L 370.80 399.60 L 374.90 393.50 L 379.30 387.70 L 384.10 382.20 L 390.90 375.30 L 398.00 368.60 L 405.50 362.40 L 413.30 356.50 L 429.30 345.50 L 436.10 341.50 L 443.10 337.90 L 457.30 331.80 L 467.10 328.50 L 477.10 325.60 L 487.20 323.40 L 497.50 321.60 L 507.80 320.20 L 518.20 319.30 L 539.00 318.70 L 549.30 318.90 L 560.40 319.60 L 571.30 320.80 L 582.10 322.40 L 592.90 324.50 L 603.60 327.10 L 614.20 330.10 L 624.70 333.50 L 635.00 337.30 L 645.10 341.60 L 663.50 350.60 L 680.10 360.00 L 688.10 365.10 L 703.40 376.30 L 710.70 382.40 L 717.70 388.80 L 724.40 395.50 L 732.80 404.70 L 740.90 414.10 L 748.50 423.90 L 755.90 433.90 L 762.80 444.20 L 773.50 461.00 L 777.00 467.60 L 780.20 474.40 L 782.90 481.40 L 785.00 488.60 L 786.50 495.90 L 787.30 501.90 L 788.00 519.90 L 800.70 521.20 L 813.30 523.10 L 818.40 524.60 L 819.90 525.50 L 820.30 526.60 L 820.10 529.20 L 819.60 530.30 L 818.30 531.00 L 812.50 530.80 L 797.80 528.70 L 788.00 527.90 L 786.90 531.10 L 785.70 537.90 L 784.00 544.60 L 779.00 557.70 L 778.00 561.10 L 794.80 566.00 L 802.90 569.30 L 803.20 570.90 L 803.00 572.40 L 801.70 575.30 L 773.30 567.40 L 770.30 572.70 L 763.40 582.90 L 751.90 597.20 L 745.90 603.50 L 744.10 605.80 L 742.50 609.20 L 742.10 611.20 L 738.30 611.90 L 736.50 612.50 L 723.50 623.00 L 717.50 627.30 L 706.80 633.90 L 693.00 641.20 L 688.60 643.90 L 676.00 653.00 L 667.30 658.50 L 658.40 663.50 L 639.70 672.20 L 630.20 676.10 L 615.60 681.30 L 601.00 686.20 L 604.80 686.60 L 608.70 686.60 L 624.10 685.30 L 640.50 683.60 L 656.80 681.40 L 673.10 678.80 L 689.30 675.60 L 705.40 671.90 L 721.20 667.60 L 733.00 663.90 L 744.70 659.80 L 756.20 655.30 L 767.60 650.40 L 771.20 644.90 L 816.50 566.20 L 857.90 493.20 L 859.80 489.20 L 858.20 484.30 L 854.10 474.90 L 843.00 453.50 L 830.50 431.20 L 826.70 423.60 L 823.30 415.70 L 822.00 415.50 L 820.00 414.50 L 818.00 411.70 L 816.80 408.30 L 823.40 402.90 L 829.20 396.40 L 833.90 389.20 L 837.40 381.40 L 838.70 377.30 L 839.90 371.40 L 840.60 365.40 L 840.70 359.40 L 840.20 353.40 L 839.10 347.50 L 837.50 341.70 L 833.80 333.50 L 831.50 329.60 L 826.30 322.90 L 823.50 320.20 L 817.20 315.60 L 810.10 312.20 L 802.50 310.10 L 793.50 309.20 L 788.30 309.20 L 778.20 310.30 L 771.50 311.90 L 765.00 314.00 L 758.70 316.60 L 752.50 319.70 L 746.60 323.20 L 741.00 327.10 L 737.80 325.10 L 734.90 322.50 L 734.00 320.40 L 733.90 319.10 L 737.10 316.30 L 743.90 311.70 L 749.40 308.80 L 766.50 301.20 L 765.50 299.30 L 761.10 294.90 L 754.00 288.80 L 746.60 283.00 L 739.00 277.50 L 731.10 272.40 L 723.00 267.60 L 714.70 263.20 L 706.20 259.20 L 697.50 255.60 L 688.20 252.20 L 678.80 249.30 L 669.30 247.00 L 659.60 245.10 L 649.90 243.70 L 630.30 242.10 L 620.40 241.90 L 598.50 242.20 L 586.50 243.00 L 574.60 244.40 L 562.70 246.40 Z M 369.30 298.60 L 365.70 301.20 L 362.50 304.10 L 359.50 307.30 L 356.80 310.80 L 353.70 315.80 L 351.20 321.00 L 349.30 326.60 L 347.90 332.30 L 347.10 338.10 L 346.90 348.20 L 347.90 356.50 L 348.90 360.50 L 351.80 368.40 L 356.00 375.60 L 358.50 378.90 L 372.20 360.20 L 388.70 340.70 L 406.00 321.80 L 428.80 299.30 L 424.20 296.80 L 419.50 294.80 L 414.50 293.10 L 409.40 291.80 L 404.20 290.90 L 399.00 290.50 L 393.70 290.50 L 388.60 291.10 L 383.50 292.10 L 378.60 293.70 L 373.90 295.80 L 369.30 298.60 Z M 967.80 307.30 L 973.30 308.40 L 978.50 310.00 L 983.60 312.20 L 993.20 317.60 L 997.60 320.90 L 1000.30 317.90 L 1000.40 317.10 L 999.90 316.10 L 996.60 312.40 L 992.80 309.20 L 988.60 306.40 L 984.20 304.20 L 981.00 303.10 L 977.90 302.20 L 972.90 301.60 L 971.40 302.10 L 970.20 303.00 L 969.10 304.30 L 967.80 307.30 Z M 968.40 314.90 L 859.40 512.90 L 841.20 545.50 L 765.60 676.20 L 703.60 782.00 L 701.30 787.20 L 704.60 788.90 L 707.60 791.00 L 713.30 795.60 L 720.70 794.10 L 727.80 791.80 L 757.30 740.00 L 809.00 651.00 L 826.60 621.50 L 854.50 573.10 L 875.20 536.40 L 987.90 331.90 L 990.70 325.70 L 980.00 319.20 L 976.30 317.40 L 972.50 315.90 L 968.40 314.90 Z M 430.10 357.90 L 418.60 365.80 L 411.50 371.80 L 408.40 375.20 L 402.00 380.60 L 396.00 386.50 L 390.30 392.80 L 385.00 399.40 L 380.20 406.30 L 376.00 413.60 L 373.30 419.30 L 371.00 425.20 L 369.10 431.20 L 367.60 437.40 L 366.90 448.50 L 367.40 456.00 L 368.10 459.60 L 369.20 463.10 L 370.80 466.40 L 372.90 469.50 L 360.30 491.30 L 357.50 496.90 L 353.70 506.50 L 351.90 514.70 L 357.90 514.20 L 385.70 512.90 L 395.60 513.10 L 415.20 514.30 L 415.60 519.10 L 411.90 520.00 L 408.10 520.30 L 396.70 519.50 L 378.60 520.00 L 350.10 521.80 L 350.00 528.70 L 350.40 535.50 L 351.30 542.20 L 352.80 548.90 L 368.20 544.00 L 383.90 539.70 L 395.90 537.10 L 409.10 535.20 L 410.40 535.70 L 410.90 536.60 L 410.90 538.90 L 410.30 540.00 L 409.40 540.80 L 388.70 545.20 L 380.10 547.40 L 371.60 549.90 L 354.90 555.40 L 357.90 561.60 L 361.50 567.60 L 369.50 578.90 L 375.80 575.80 L 394.00 565.80 L 408.30 559.10 L 414.20 556.80 L 415.10 556.90 L 418.50 558.50 L 418.20 560.10 L 417.60 561.50 L 416.60 562.50 L 394.90 573.10 L 384.70 578.80 L 374.70 585.00 L 379.80 590.30 L 385.10 595.20 L 390.70 599.80 L 402.70 608.20 L 409.00 611.90 L 415.40 615.40 L 428.60 621.50 L 466.80 637.00 L 478.30 640.80 L 489.80 644.10 L 501.50 647.00 L 513.30 649.30 L 525.20 651.10 L 537.20 652.40 L 549.20 653.20 L 561.20 653.40 L 573.30 653.20 L 585.30 652.40 L 597.20 651.10 L 628.60 646.70 L 647.80 642.50 L 666.70 637.40 L 683.80 631.70 L 694.90 627.00 L 707.60 620.00 L 714.60 615.50 L 721.40 610.50 L 728.00 605.20 L 715.20 596.70 L 697.30 587.00 L 674.70 576.20 L 656.00 568.50 L 657.00 563.10 L 664.30 564.90 L 678.10 570.40 L 696.40 578.50 L 705.30 582.90 L 719.00 590.50 L 733.40 599.80 L 739.00 594.60 L 744.20 589.10 L 749.10 583.30 L 753.70 577.20 L 757.90 570.90 L 761.80 564.40 L 730.50 557.00 L 718.80 554.80 L 683.50 548.80 L 653.30 545.00 L 652.00 544.60 L 651.10 543.90 L 650.70 542.80 L 650.60 541.70 L 651.30 539.30 L 657.20 539.10 L 663.00 539.40 L 686.30 542.20 L 686.70 542.50 L 701.90 544.70 L 732.30 549.90 L 757.40 555.50 L 765.60 557.70 L 770.10 547.60 L 771.70 542.30 L 773.00 536.90 L 774.60 526.00 L 754.50 524.60 L 734.30 523.70 L 707.50 523.50 L 694.00 523.70 L 667.60 524.80 L 654.70 525.90 L 653.30 525.80 L 652.40 525.20 L 651.80 524.30 L 651.60 522.10 L 652.00 521.00 L 652.80 520.20 L 654.00 519.70 L 659.60 518.90 L 691.10 516.80 L 705.60 516.30 L 734.60 516.40 L 775.60 518.20 L 775.10 503.40 L 774.30 496.00 L 773.00 488.70 L 771.70 483.90 L 767.90 474.80 L 763.50 467.00 L 749.10 444.40 L 736.10 426.50 L 729.20 417.80 L 722.00 409.30 L 714.50 401.20 L 706.50 393.50 L 698.30 386.70 L 689.90 380.30 L 681.20 374.30 L 672.20 368.70 L 662.90 363.40 L 644.00 353.90 L 623.50 345.20 L 612.50 341.40 L 601.30 338.20 L 589.90 335.50 L 578.40 333.30 L 566.90 331.70 L 555.20 330.50 L 543.60 329.90 L 531.90 329.80 L 520.10 330.20 L 508.20 331.20 L 496.40 332.90 L 487.60 334.50 L 478.90 336.60 L 470.30 339.00 L 461.90 341.80 L 453.60 345.10 L 445.50 348.90 L 437.70 353.20 L 430.10 357.90 Z M 307.10 527.50 L 309.30 536.30 L 311.90 544.90 L 316.30 556.00 L 318.90 561.40 L 337.80 553.20 L 339.70 551.80 L 339.50 548.70 L 338.00 539.50 L 337.20 522.90 L 317.00 525.40 L 307.10 527.50 Z M 874.40 562.30 L 867.30 575.60 L 852.20 601.70 L 850.50 604.90 L 849.20 608.40 L 853.50 605.40 L 862.00 595.20 L 869.40 584.00 L 872.50 578.20 L 875.30 572.10 L 877.60 565.90 L 879.50 559.50 L 880.90 552.90 L 878.70 554.90 L 877.10 557.20 L 874.40 562.30 Z M 322.70 568.20 L 325.50 573.30 L 331.80 583.10 L 342.70 596.80 L 359.80 586.10 L 349.90 572.40 L 344.00 561.70 L 342.60 560.00 L 339.10 560.80 L 332.40 563.40 L 322.70 568.20 Z M 348.50 602.60 L 356.20 609.90 L 364.20 616.70 L 372.50 623.20 L 381.10 629.20 L 399.20 640.10 L 418.00 649.80 L 430.90 655.50 L 444.00 660.70 L 457.10 665.50 L 472.70 670.40 L 488.50 674.80 L 496.50 676.50 L 504.50 677.70 L 502.00 675.40 L 499.20 673.60 L 470.50 660.00 L 454.20 651.80 L 438.10 643.10 L 425.80 636.90 L 413.60 630.30 L 405.70 625.50 L 390.50 615.10 L 383.30 609.40 L 376.30 603.40 L 367.10 594.30 L 364.10 592.10 L 359.90 594.20 L 355.80 596.70 L 348.50 602.60 Z M 819.80 654.30 L 768.60 743.20 L 759.20 760.40 L 759.80 774.20 L 759.50 778.70 L 759.00 781.70 L 758.10 784.60 L 756.70 787.40 L 754.80 790.40 L 750.10 795.50 L 747.40 797.60 L 743.50 800.10 L 739.40 802.20 L 735.00 803.90 L 728.20 805.90 L 721.50 807.50 L 722.70 812.00 L 725.70 819.40 L 728.00 827.00 L 729.80 834.80 L 732.00 850.60 L 733.00 870.70 L 733.10 903.10 L 734.60 964.40 L 734.70 984.80 L 733.30 1022.30 L 729.60 1073.30 L 726.00 1113.60 L 723.70 1133.70 L 720.80 1153.70 L 724.30 1156.10 L 731.90 1160.00 L 737.90 1162.30 L 744.00 1164.20 L 756.50 1167.60 L 773.10 1171.10 L 789.80 1174.30 L 806.70 1176.90 L 840.50 1181.10 L 857.40 1182.70 L 880.10 1184.00 L 891.40 1184.40 L 902.70 1184.40 L 917.80 1183.40 L 925.30 1182.50 L 936.40 1180.10 L 941.70 1178.20 L 946.90 1175.80 L 953.20 1171.80 L 956.10 1169.40 L 960.10 1165.10 L 963.70 1160.60 L 966.80 1155.70 L 972.10 1145.30 L 974.20 1139.90 L 977.00 1131.60 L 979.30 1123.20 L 983.80 1098.30 L 985.70 1085.80 L 987.80 1066.00 L 987.90 1058.80 L 987.50 1051.50 L 986.60 1044.30 L 985.10 1037.20 L 983.00 1030.20 L 981.30 1028.20 L 970.70 1019.90 L 963.40 1013.40 L 956.50 1006.50 L 949.90 999.30 L 943.70 991.70 L 938.00 983.80 L 932.70 975.50 L 924.70 961.80 L 917.30 947.80 L 910.30 933.50 L 899.50 909.80 L 892.40 890.70 L 889.30 881.00 L 884.20 861.30 L 877.20 823.10 L 871.50 781.30 L 866.70 752.50 L 863.60 738.20 L 860.00 724.00 L 857.20 714.50 L 850.90 695.70 L 847.10 686.50 L 841.10 674.70 L 837.70 669.00 L 831.40 660.10 L 826.30 654.90 L 822.60 652.30 L 821.30 652.50 L 819.80 654.30 Z M 494.90 656.50 L 516.70 671.40 L 532.00 680.30 L 539.90 684.20 L 542.20 683.60 L 544.60 683.50 L 554.10 684.30 L 558.80 683.70 L 572.00 680.30 L 585.00 676.40 L 597.80 672.00 L 610.50 667.10 L 635.40 656.30 L 629.50 656.90 L 601.70 661.20 L 591.20 662.50 L 570.30 663.90 L 559.80 664.10 L 540.10 663.40 L 531.00 662.50 L 521.90 661.30 L 494.90 656.50 Z M 418.40 667.70 L 411.70 678.10 L 405.50 688.80 L 399.60 699.70 L 394.00 710.70 L 388.90 722.00 L 384.10 733.40 L 378.90 747.00 L 374.20 760.60 L 370.00 774.50 L 366.20 788.40 L 359.90 816.60 L 357.20 830.80 L 355.00 845.20 L 352.50 864.30 L 350.50 883.50 L 349.10 902.70 L 345.00 994.60 L 342.30 1040.50 L 341.30 1063.90 L 340.80 1087.30 L 340.80 1110.70 L 341.00 1114.60 L 341.60 1118.40 L 343.90 1119.90 L 346.50 1121.00 L 358.30 1124.60 L 371.60 1127.50 L 378.30 1128.20 L 375.40 1095.00 L 374.20 1056.20 L 373.80 1028.40 L 374.00 972.80 L 375.10 917.30 L 375.40 882.50 L 375.90 865.10 L 376.80 847.80 L 379.10 824.80 L 381.90 807.70 L 383.30 802.10 L 385.90 795.00 L 394.10 781.10 L 402.40 755.50 L 404.90 749.20 L 407.80 743.20 L 412.60 745.10 L 413.90 746.10 L 414.60 748.00 L 413.30 754.50 L 406.60 774.60 L 405.30 779.70 L 410.20 778.00 L 418.50 776.20 L 425.40 776.20 L 428.30 776.80 L 431.00 777.90 L 433.50 779.40 L 435.80 781.40 L 437.60 783.70 L 439.10 786.30 L 439.60 788.90 L 440.30 796.80 L 443.60 797.10 L 449.10 798.20 L 453.00 800.40 L 455.70 802.80 L 457.90 805.50 L 459.60 808.50 L 460.70 811.80 L 461.40 815.30 L 461.60 818.80 L 461.30 822.40 L 460.50 825.80 L 459.30 829.10 L 462.30 835.00 L 463.40 838.20 L 464.20 841.40 L 464.40 844.60 L 463.90 850.30 L 463.30 852.50 L 460.80 857.30 L 449.80 871.50 L 444.60 877.30 L 440.80 880.90 L 436.70 884.10 L 432.30 886.90 L 423.70 890.90 L 412.20 894.30 L 405.30 895.80 L 403.50 920.80 L 399.60 995.90 L 398.70 1068.70 L 399.60 1083.70 L 409.40 1078.90 L 419.40 1074.80 L 429.50 1071.10 L 439.90 1067.90 L 455.20 1064.10 L 470.60 1060.90 L 486.20 1058.30 L 497.90 1056.80 L 509.70 1055.70 L 521.40 1055.10 L 533.30 1054.90 L 532.60 1039.50 L 531.90 993.30 L 532.90 928.20 L 535.10 875.40 L 540.80 764.00 L 541.70 739.30 L 542.00 714.60 L 540.80 714.40 L 539.80 714.70 L 536.70 718.00 L 530.30 726.60 L 524.10 735.50 L 516.80 747.90 L 513.60 754.40 L 510.90 761.00 L 508.80 767.90 L 506.20 780.00 L 505.00 782.20 L 503.50 782.50 L 501.90 782.30 L 499.30 780.90 L 498.40 779.80 L 497.80 778.30 L 497.50 774.60 L 497.70 770.90 L 498.40 767.20 L 501.80 756.50 L 504.10 750.70 L 509.70 739.60 L 519.60 723.70 L 523.70 718.10 L 528.10 712.80 L 532.80 707.80 L 539.10 702.00 L 539.70 700.40 L 539.80 698.70 L 539.40 697.10 L 538.00 695.70 L 536.90 695.30 L 504.20 691.50 L 492.50 689.50 L 481.00 686.90 L 469.50 683.80 L 458.20 680.30 L 447.10 676.30 L 436.10 671.80 L 424.10 666.20 L 421.50 665.70 L 420.30 665.90 L 419.20 666.50 L 418.40 667.70 Z M 731.40 676.70 L 704.00 684.30 L 690.10 687.50 L 676.10 690.40 L 648.00 695.10 L 621.40 698.20 L 603.50 699.40 L 573.20 699.20 L 561.40 697.60 L 560.10 697.90 L 558.20 699.40 L 557.80 700.40 L 558.10 701.70 L 567.00 712.90 L 573.60 722.90 L 580.60 735.60 L 583.70 742.20 L 586.20 749.00 L 588.30 755.90 L 589.50 761.20 L 590.30 766.50 L 590.70 771.90 L 590.70 777.40 L 590.50 778.90 L 589.80 780.30 L 588.80 781.40 L 587.50 782.10 L 586.00 782.40 L 584.50 782.10 L 583.00 781.30 L 582.00 780.10 L 581.00 777.00 L 580.10 767.30 L 578.90 761.00 L 577.20 754.80 L 575.10 748.70 L 572.60 742.80 L 569.80 737.00 L 564.90 728.60 L 558.60 719.10 L 554.80 715.60 L 554.30 723.20 L 553.80 746.10 L 546.70 881.00 L 544.90 926.00 L 544.20 956.00 L 543.80 986.00 L 543.80 1028.80 L 544.40 1041.50 L 547.10 1037.80 L 553.70 1025.80 L 573.70 991.80 L 640.10 880.50 L 645.40 870.60 L 640.00 859.40 L 639.10 856.50 L 638.50 850.80 L 639.20 845.80 L 641.20 841.10 L 645.10 836.00 L 648.00 833.50 L 646.10 827.80 L 645.50 824.90 L 645.40 821.90 L 645.80 819.00 L 648.00 813.80 L 649.40 811.70 L 651.10 809.90 L 654.10 807.60 L 657.40 805.80 L 661.00 804.40 L 664.70 803.50 L 665.30 797.40 L 666.70 793.60 L 668.00 791.90 L 672.00 788.60 L 674.20 787.40 L 677.80 786.00 L 681.60 785.10 L 689.40 784.20 L 750.40 680.10 L 757.40 667.70 L 748.70 670.50 L 731.40 676.70 Z M 417.80 787.50 L 413.70 788.40 L 409.60 789.80 L 405.70 791.70 L 402.10 794.00 L 398.10 798.00 L 396.50 800.30 L 394.90 804.80 L 393.60 809.30 L 391.90 818.60 L 390.50 828.00 L 388.20 849.30 L 387.10 870.80 L 386.40 874.00 L 386.20 877.40 L 386.10 884.10 L 391.90 884.80 L 397.80 885.10 L 401.80 885.00 L 405.60 884.50 L 414.40 882.30 L 419.10 880.60 L 423.80 878.50 L 428.20 876.00 L 432.30 873.10 L 436.20 869.90 L 439.70 866.20 L 442.90 862.30 L 445.50 858.10 L 438.90 857.70 L 432.20 856.90 L 431.80 853.10 L 432.10 851.30 L 432.90 849.60 L 434.60 848.00 L 435.80 847.40 L 440.10 847.20 L 444.40 847.60 L 453.00 849.20 L 453.40 843.70 L 453.10 840.90 L 452.40 838.30 L 451.20 836.80 L 449.60 835.80 L 447.90 835.20 L 442.30 834.00 L 440.90 830.90 L 442.70 826.50 L 450.00 823.10 L 450.40 816.40 L 449.60 813.00 L 447.80 810.70 L 445.80 809.30 L 443.50 808.50 L 441.10 808.10 L 438.70 808.20 L 436.30 808.80 L 432.90 810.80 L 431.50 811.20 L 428.60 811.10 L 426.10 809.70 L 425.60 808.00 L 425.70 804.60 L 428.50 794.60 L 428.40 791.30 L 427.90 789.50 L 426.60 788.20 L 425.00 787.50 L 421.40 787.20 L 417.80 787.50 Z M 676.00 798.60 L 676.90 801.70 L 682.30 809.10 L 683.30 811.30 L 683.40 813.10 L 682.90 814.70 L 682.00 816.20 L 680.70 817.40 L 679.10 818.10 L 677.40 818.30 L 675.90 818.10 L 674.60 817.50 L 671.00 814.70 L 669.70 814.10 L 668.40 813.80 L 662.10 815.70 L 659.80 816.80 L 657.80 818.20 L 656.90 819.40 L 656.30 820.80 L 656.20 824.30 L 656.60 825.70 L 658.80 828.60 L 662.50 831.60 L 665.00 834.40 L 665.90 837.40 L 665.30 839.80 L 664.50 842.20 L 652.90 842.30 L 650.20 847.20 L 649.30 850.00 L 661.20 852.10 L 664.00 853.00 L 666.70 854.40 L 667.70 855.20 L 668.60 857.30 L 668.60 859.10 L 668.00 860.80 L 666.40 862.50 L 665.30 863.10 L 662.60 863.30 L 654.60 861.60 L 658.70 869.00 L 664.00 875.60 L 668.10 879.40 L 672.50 882.80 L 677.40 885.80 L 682.50 888.20 L 687.80 890.10 L 697.90 892.30 L 702.60 892.50 L 707.30 892.20 L 711.90 891.30 L 716.40 890.10 L 720.80 888.40 L 720.40 862.00 L 719.20 845.50 L 718.70 841.70 L 717.70 837.90 L 716.60 828.90 L 714.00 820.10 L 712.10 815.90 L 709.90 811.90 L 707.30 808.20 L 704.40 804.70 L 701.00 801.60 L 698.60 799.80 L 696.00 798.40 L 693.30 797.40 L 687.60 796.50 L 681.70 797.00 L 676.00 798.60 Z M 651.80 882.00 L 577.30 1008.00 L 470.30 1192.00 L 469.90 1193.00 L 469.90 1194.00 L 470.60 1196.00 L 473.70 1200.60 L 476.20 1202.90 L 478.20 1204.10 L 480.30 1204.90 L 482.60 1205.30 L 488.20 1205.80 L 491.10 1205.30 L 492.90 1203.50 L 495.70 1199.30 L 548.40 1108.10 L 617.10 991.90 L 647.90 938.90 L 673.00 896.80 L 667.70 893.40 L 662.60 889.80 L 657.80 885.70 L 653.30 881.40 L 651.80 882.00 Z M 683.20 901.50 L 618.00 1012.60 L 599.30 1044.90 L 593.30 1055.90 L 603.90 1056.60 L 625.00 1059.30 L 635.50 1061.20 L 649.30 1064.30 L 663.10 1067.80 L 676.70 1071.70 L 697.00 1078.20 L 717.10 1085.10 L 721.20 1019.70 L 722.20 987.30 L 722.20 963.10 L 720.50 901.70 L 718.10 901.20 L 709.90 903.20 L 703.30 903.80 L 693.20 903.10 L 683.20 901.50 Z M 1142.60 940.00 L 1138.20 944.50 L 1134.00 949.20 L 1111.80 978.00 L 1104.60 986.30 L 1097.10 994.40 L 1085.10 1005.80 L 1078.80 1011.10 L 1066.60 1019.90 L 1055.00 1026.60 L 1048.90 1029.40 L 1042.60 1031.70 L 1036.00 1033.40 L 1031.50 1034.10 L 1022.50 1034.70 L 1009.00 1033.90 L 995.50 1032.30 L 997.30 1040.80 L 998.60 1049.40 L 999.10 1058.10 L 999.20 1066.80 L 998.70 1075.50 L 997.70 1084.20 L 993.70 1110.10 L 990.00 1127.20 L 987.80 1135.60 L 985.00 1143.90 L 981.80 1152.00 L 978.00 1160.00 L 988.30 1158.50 L 1008.70 1154.30 L 1018.80 1151.80 L 1038.60 1145.60 L 1050.00 1141.30 L 1061.20 1136.30 L 1072.10 1130.80 L 1080.00 1126.30 L 1087.70 1121.40 L 1095.20 1116.10 L 1102.30 1110.30 L 1109.60 1103.90 L 1116.60 1097.20 L 1123.30 1090.10 L 1129.70 1082.70 L 1135.60 1075.00 L 1141.10 1067.00 L 1148.20 1054.30 L 1154.10 1040.90 L 1159.40 1025.20 L 1160.80 1019.80 L 1161.80 1014.40 L 1162.40 1008.90 L 1163.00 1008.10 L 1164.20 1000.30 L 1165.00 992.50 L 1165.40 984.70 L 1165.40 976.80 L 1164.90 968.90 L 1164.00 961.20 L 1162.60 953.50 L 1160.70 945.80 L 1158.70 940.10 L 1156.70 936.80 L 1155.20 935.40 L 1152.00 935.00 L 1148.40 936.00 L 1146.30 937.20 L 1142.60 940.00 Z M 479.70 1070.50 L 455.00 1075.40 L 442.80 1078.60 L 430.70 1082.20 L 422.80 1085.00 L 407.30 1091.70 L 413.20 1115.90 L 416.70 1127.90 L 422.50 1145.50 L 424.50 1154.50 L 424.70 1158.50 L 424.40 1162.40 L 422.50 1174.30 L 422.20 1178.20 L 422.70 1183.40 L 423.50 1186.00 L 425.00 1187.60 L 426.60 1188.90 L 428.50 1189.90 L 431.60 1190.90 L 441.30 1192.80 L 439.30 1184.40 L 439.10 1180.10 L 439.50 1178.50 L 440.50 1177.20 L 441.80 1176.30 L 443.50 1175.70 L 445.10 1175.60 L 446.70 1175.90 L 447.70 1176.80 L 448.30 1177.80 L 449.10 1185.30 L 449.70 1187.90 L 451.70 1192.70 L 457.60 1190.90 L 469.50 1170.80 L 481.00 1150.60 L 464.30 1143.00 L 455.60 1137.80 L 449.50 1132.40 L 451.00 1129.50 L 452.00 1128.20 L 453.30 1127.30 L 455.30 1126.90 L 456.50 1127.10 L 477.20 1136.30 L 487.90 1140.10 L 498.40 1121.40 L 509.20 1102.90 L 531.20 1066.30 L 522.60 1066.30 L 505.40 1067.30 L 492.50 1068.70 L 479.70 1070.50 Z M 532.30 1159.00 L 554.40 1164.20 L 576.90 1168.10 L 604.40 1171.60 L 618.30 1173.00 L 632.10 1173.90 L 646.00 1174.40 L 659.90 1174.20 L 664.90 1172.80 L 667.40 1172.40 L 670.10 1172.30 L 671.10 1177.30 L 673.80 1185.40 L 677.00 1191.30 L 679.10 1193.90 L 681.50 1196.30 L 684.40 1198.30 L 689.30 1200.90 L 694.40 1203.00 L 699.70 1204.60 L 710.60 1206.50 L 724.60 1207.30 L 732.80 1207.40 L 732.10 1204.90 L 729.00 1197.50 L 728.40 1194.20 L 728.60 1192.50 L 730.00 1191.40 L 731.70 1190.80 L 733.50 1190.70 L 735.20 1191.30 L 737.10 1193.60 L 739.90 1198.70 L 742.50 1207.10 L 758.30 1204.70 L 757.90 1200.40 L 754.90 1188.00 L 754.90 1186.80 L 755.80 1185.20 L 757.10 1184.50 L 758.70 1184.20 L 760.30 1184.30 L 761.70 1184.80 L 763.50 1187.40 L 766.00 1192.90 L 767.90 1202.00 L 773.30 1198.60 L 778.40 1194.80 L 781.40 1191.90 L 784.20 1188.70 L 786.50 1185.20 L 779.20 1183.90 L 757.50 1179.20 L 744.00 1175.90 L 737.40 1173.90 L 730.80 1171.60 L 724.50 1168.90 L 718.30 1165.70 L 714.00 1162.60 L 712.10 1160.70 L 709.90 1157.00 L 709.50 1153.40 L 710.10 1147.30 L 714.00 1121.50 L 716.30 1098.30 L 693.20 1088.90 L 669.60 1081.00 L 655.80 1077.30 L 641.90 1074.10 L 627.90 1071.40 L 617.30 1069.80 L 606.70 1068.50 L 596.10 1067.70 L 585.30 1067.30 L 545.30 1136.00 L 532.30 1159.00 Z" fill="#010202" fill-rule="nonzero" node-id="82" stroke="none" target-height="1101.5" target-width="890.80005" target-x="286" target-y="118.1"></path><path d="M 420.10 389.20 L 424.90 387.50 L 427.40 387.00 L 431.30 386.80 L 435.10 387.30 L 437.60 387.90 L 442.20 390.10 L 444.20 391.70 L 447.40 395.70 L 445.40 399.40 L 442.80 399.00 L 433.30 394.70 L 430.70 394.40 L 427.70 394.80 L 424.80 395.60 L 422.10 396.80 L 418.30 399.10 L 414.70 401.80 L 411.00 400.60 L 410.70 398.60 L 411.00 396.90 L 411.60 395.40 L 413.20 393.50 L 415.40 391.80 L 420.10 389.20 Z" fill="#010202" fill-rule="nonzero" node-id="84" stroke="none" target-height="15" target-width="36.69998" target-x="410.7" target-y="386.8"></path><path d="M 627.40 404.70 L 630.30 402.80 L 633.30 401.40 L 636.60 400.30 L 640.00 399.60 L 643.40 399.40 L 646.80 399.60 L 650.20 400.20 L 653.50 401.20 L 656.60 402.60 L 659.40 404.50 L 662.00 406.70 L 664.30 409.40 L 664.70 410.80 L 664.60 411.90 L 663.30 413.90 L 661.30 415.60 L 653.20 410.00 L 650.40 408.60 L 646.30 407.60 L 641.00 407.80 L 629.80 411.40 L 626.80 411.90 L 626.10 409.40 L 626.10 406.90 L 626.50 405.80 L 627.40 404.70 Z" fill="#010202" fill-rule="nonzero" node-id="86" stroke="none" target-height="16.200012" target-width="38.600037" target-x="626.1" target-y="399.4"></path><path d="M 407.40 442.00 L 410.40 439.70 L 413.70 437.90 L 417.20 436.60 L 420.90 435.70 L 424.60 435.30 L 428.40 435.30 L 432.20 435.90 L 435.80 436.90 L 439.20 438.30 L 442.40 440.30 L 445.30 442.60 L 447.80 445.50 L 449.80 448.40 L 451.40 451.30 L 453.40 457.70 L 454.10 464.40 L 453.40 471.20 L 452.50 474.50 L 450.80 477.70 L 448.60 480.70 L 446.10 483.40 L 443.30 485.90 L 440.30 487.90 L 437.10 489.70 L 433.60 491.00 L 430.10 491.90 L 426.50 492.30 L 422.90 492.20 L 419.30 491.50 L 415.70 490.20 L 412.30 488.60 L 409.20 486.50 L 406.40 484.10 L 403.80 481.30 L 401.70 478.20 L 400.00 474.90 L 398.70 471.40 L 397.90 467.70 L 397.60 464.00 L 397.90 459.80 L 398.70 455.80 L 400.10 451.90 L 402.10 448.30 L 404.50 445.00 L 407.40 442.00 Z M 430.80 444.00 L 429.30 444.50 L 427.10 446.40 L 426.00 448.40 L 425.50 450.60 L 425.60 452.80 L 426.30 455.00 L 427.40 456.40 L 428.80 457.40 L 430.50 458.00 L 434.10 458.30 L 437.40 457.10 L 438.70 456.00 L 440.20 453.10 L 440.30 450.30 L 439.70 448.30 L 438.50 446.50 L 436.90 445.00 L 433.60 443.70 L 430.80 444.00 Z" fill="#010202" fill-rule="nonzero" node-id="88" stroke="none" target-height="57" target-width="56.5" target-x="397.6" target-y="435.3"></path><path d="M 613.10 483.90 L 612.60 480.60 L 612.70 474.40 L 613.30 471.40 L 614.60 467.40 L 616.40 463.80 L 618.80 460.30 L 621.60 457.20 L 624.70 454.50 L 628.20 452.20 L 632.00 450.40 L 635.90 449.20 L 644.00 448.40 L 647.70 448.70 L 651.40 449.60 L 654.90 451.00 L 658.20 452.80 L 661.30 455.10 L 664.10 457.70 L 666.50 460.60 L 668.50 463.80 L 670.10 467.30 L 671.10 470.90 L 671.60 474.70 L 671.40 480.80 L 670.90 483.80 L 669.40 488.10 L 667.40 492.20 L 664.90 496.00 L 662.00 499.40 L 659.10 501.80 L 656.00 503.70 L 652.60 505.30 L 649.00 506.50 L 645.40 507.20 L 641.70 507.40 L 638.00 507.20 L 634.40 506.40 L 628.10 503.60 L 623.00 499.80 L 618.70 495.20 L 615.40 489.80 L 613.10 483.90 Z M 646.70 457.20 L 644.50 458.90 L 642.00 464.00 L 643.40 467.50 L 644.40 469.10 L 645.90 470.30 L 647.40 471.20 L 649.10 471.60 L 652.60 471.40 L 655.70 469.80 L 656.90 468.60 L 657.70 467.10 L 658.20 463.90 L 657.50 461.20 L 656.30 459.50 L 654.70 458.10 L 652.90 457.10 L 650.90 456.60 L 648.80 456.60 L 646.70 457.20 Z" fill="#010202" fill-rule="nonzero" node-id="90" stroke="none" target-height="59" target-width="59" target-x="612.6" target-y="448.4"></path><path d="M 491.90 475.80 L 496.90 473.50 L 502.10 471.90 L 507.40 470.80 L 512.80 470.30 L 518.20 470.20 L 523.70 470.40 L 531.90 471.40 L 539.90 472.80 L 546.70 474.50 L 553.20 477.10 L 556.10 478.90 L 558.70 481.30 L 559.50 483.80 L 559.80 486.20 L 559.70 488.70 L 558.30 493.40 L 555.10 498.90 L 552.70 501.80 L 548.40 505.90 L 543.80 509.70 L 538.90 513.20 L 533.80 516.30 L 528.50 519.00 L 523.00 521.30 L 523.20 526.00 L 524.90 540.20 L 525.50 543.20 L 526.60 546.10 L 528.00 548.80 L 531.80 553.60 L 534.10 555.70 L 537.90 558.40 L 541.90 560.60 L 547.00 562.40 L 549.70 563.00 L 554.10 562.80 L 557.40 561.30 L 559.10 559.80 L 560.20 558.00 L 562.60 551.90 L 563.60 550.00 L 567.30 550.20 L 569.10 550.80 L 570.50 551.80 L 571.70 553.80 L 571.90 555.20 L 571.70 557.90 L 571.20 560.40 L 568.80 565.00 L 567.20 567.10 L 563.20 570.50 L 558.40 572.80 L 553.30 573.90 L 546.30 573.60 L 542.10 572.80 L 538.10 571.40 L 534.20 569.60 L 530.50 567.40 L 523.80 561.90 L 518.00 555.60 L 514.20 559.40 L 510.10 563.00 L 505.70 566.10 L 501.00 568.70 L 497.70 570.00 L 494.30 571.00 L 490.70 571.60 L 487.60 571.80 L 484.70 571.50 L 479.00 569.90 L 473.80 567.00 L 470.20 564.20 L 467.20 560.90 L 464.90 557.30 L 464.10 555.30 L 463.80 553.30 L 464.20 550.50 L 464.90 549.20 L 466.50 547.70 L 470.90 547.10 L 473.90 551.90 L 477.80 556.00 L 480.10 557.50 L 482.90 558.50 L 485.90 559.30 L 488.80 559.50 L 491.60 559.30 L 494.40 558.60 L 499.60 556.20 L 503.30 553.70 L 506.60 550.70 L 512.20 544.00 L 511.60 536.20 L 510.40 528.50 L 508.80 520.80 L 505.10 518.80 L 501.60 516.50 L 498.30 513.70 L 495.40 510.70 L 490.40 503.80 L 488.40 500.10 L 485.40 492.20 L 484.90 489.00 L 485.00 485.90 L 486.20 481.80 L 488.50 478.30 L 491.90 475.80 Z M 517.90 480.20 L 520.90 483.70 L 522.80 484.90 L 525.00 485.70 L 543.10 489.70 L 543.50 485.10 L 539.50 483.30 L 535.30 482.00 L 531.00 481.20 L 526.60 480.60 L 517.90 480.20 Z" fill="#010202" fill-rule="nonzero" node-id="92" stroke="none" target-height="103.70001" target-width="108.10004" target-x="463.8" target-y="470.2"></path><path d="M 729.20 131.90 L 758.80 134.60 L 788.30 138.80 L 817.50 144.40 L 834.70 148.50 L 851.80 153.30 L 868.70 158.50 L 885.40 164.30 L 902.00 170.60 L 918.30 177.30 L 934.40 184.60 L 950.40 192.30 L 934.20 221.30 L 918.50 250.50 L 916.20 255.60 L 914.50 260.90 L 879.70 244.10 L 852.20 232.60 L 836.40 226.60 L 820.50 221.10 L 804.30 216.10 L 788.10 211.50 L 771.70 207.40 L 755.20 203.70 L 738.70 200.40 L 722.00 197.50 L 705.30 195.10 L 688.50 193.10 L 671.70 191.50 L 677.40 191.10 L 685.00 177.90 L 689.30 171.20 L 694.10 164.80 L 699.30 158.60 L 704.80 152.80 L 710.60 147.20 L 716.60 141.80 L 729.20 131.90 Z" fill="#b8b7b5" fill-rule="nonzero" node-id="94" stroke="none" target-height="129" target-width="278.7" target-x="671.7" target-y="131.9"></path><path d="M 465.50 171.50 L 471.30 169.70 L 466.90 176.40 L 462.90 183.50 L 458.60 193.30 L 457.00 198.40 L 455.90 203.70 L 455.40 209.00 L 455.50 214.70 L 442.00 218.90 L 415.50 228.30 L 402.40 233.60 L 389.50 239.30 L 376.70 245.40 L 364.20 251.80 L 341.90 264.60 L 325.70 275.10 L 313.40 284.40 L 319.90 275.30 L 326.90 266.40 L 334.40 258.00 L 342.20 249.90 L 350.30 242.10 L 358.70 234.60 L 374.70 221.40 L 391.70 209.40 L 403.40 202.00 L 415.30 195.10 L 427.60 188.60 L 440.10 182.50 L 465.50 171.50 Z" fill="#b8b7b5" fill-rule="nonzero" node-id="96" stroke="none" target-height="114.7" target-width="157.9" target-x="313.4" target-y="169.7"></path><path d="M 1020.60 216.50 L 1026.40 205.50 L 1030.20 200.60 L 1038.40 203.30 L 1042.40 205.20 L 1045.90 207.60 L 1048.00 209.60 L 1049.90 211.80 L 1051.40 214.40 L 1039.40 237.60 L 1002.70 307.00 L 997.50 302.90 L 991.90 299.30 L 984.10 295.30 L 979.90 293.70 L 1020.60 216.50 Z" fill="#b8b7b5" fill-rule="nonzero" node-id="98" stroke="none" target-height="106.399994" target-width="71.5" target-x="979.9" target-y="200.6"></path><path d="M 375.40 327.60 L 378.20 325.20 L 381.20 323.20 L 384.50 321.70 L 388.00 320.60 L 391.60 320.00 L 395.30 319.80 L 398.90 320.00 L 402.50 320.70 L 406.00 321.80 L 388.70 340.70 L 372.20 360.20 L 372.80 358.60 L 372.90 357.00 L 372.20 353.80 L 370.30 348.00 L 369.80 345.30 L 369.70 339.80 L 371.00 334.50 L 372.10 332.00 L 373.60 329.70 L 375.40 327.60 Z" fill="#b8b7b5" fill-rule="nonzero" node-id="100" stroke="none" target-height="40.400024" target-width="36.299988" target-x="369.7" target-y="319.8"></path><path d="M 770.00 346.60 L 772.90 344.50 L 778.10 341.80 L 780.40 341.10 L 786.00 340.70 L 789.10 341.00 L 795.00 342.70 L 797.70 344.10 L 802.80 347.80 L 806.90 352.50 L 810.00 358.00 L 812.10 364.70 L 812.60 368.60 L 812.50 372.50 L 811.90 376.30 L 809.70 383.90 L 805.30 387.00 L 800.50 379.40 L 795.20 372.10 L 789.40 365.20 L 783.30 358.70 L 776.80 352.50 L 770.00 346.60 Z" fill="#b8b7b5" fill-rule="nonzero" node-id="102" stroke="none" target-height="46.299988" target-width="42.599976" target-x="770" target-y="340.7"></path><path d="M 674.70 576.20 L 686.10 581.50 L 708.50 592.90 L 703.10 598.30 L 697.50 603.50 L 685.50 612.90 L 672.80 621.40 L 662.80 627.20 L 652.70 632.50 L 638.60 639.00 L 620.20 645.70 L 609.10 649.20 L 597.20 651.10 L 585.30 652.40 L 573.30 653.20 L 561.20 653.40 L 549.20 653.20 L 537.20 652.40 L 525.20 651.10 L 513.30 649.30 L 501.50 647.00 L 489.80 644.10 L 478.30 640.80 L 466.80 637.00 L 428.60 621.50 L 431.60 618.70 L 430.00 616.40 L 436.30 611.30 L 444.60 615.30 L 453.10 618.90 L 461.70 622.10 L 470.40 625.00 L 479.30 627.40 L 488.20 629.40 L 497.30 631.00 L 506.40 632.10 L 516.90 633.00 L 537.80 633.60 L 558.80 632.70 L 579.70 630.20 L 590.00 628.40 L 597.90 626.60 L 613.50 622.00 L 621.20 619.20 L 628.60 616.00 L 635.90 612.40 L 642.90 608.40 L 649.70 603.90 L 656.10 598.80 L 666.60 588.40 L 669.70 584.60 L 672.40 580.60 L 674.70 576.20 Z" fill="#b8b7b5" fill-rule="nonzero" node-id="104" stroke="none" target-height="77.20001" target-width="279.9" target-x="428.6" target-y="576.2"></path><path d="M 392.70 1142.90 L 405.10 1144.20 L 411.40 1144.30 L 413.60 1154.30 L 413.60 1158.20 L 413.30 1162.00 L 411.30 1173.60 L 410.90 1177.50 L 411.00 1183.90 L 412.00 1188.80 L 413.00 1191.10 L 415.70 1195.20 L 417.40 1197.00 L 421.70 1199.60 L 425.90 1201.30 L 434.70 1203.70 L 439.30 1204.40 L 448.40 1204.70 L 452.90 1204.30 L 457.30 1203.50 L 461.70 1202.20 L 467.30 1209.60 L 469.50 1211.80 L 472.00 1213.60 L 474.80 1215.00 L 479.30 1216.30 L 487.20 1217.40 L 493.40 1217.00 L 495.90 1216.20 L 498.10 1215.00 L 501.70 1211.40 L 504.60 1207.20 L 526.20 1169.70 L 542.40 1173.70 L 558.80 1177.10 L 575.20 1180.00 L 591.80 1182.40 L 609.20 1184.30 L 626.60 1185.80 L 638.30 1186.40 L 649.90 1186.60 L 661.60 1186.30 L 665.50 1194.20 L 667.80 1197.90 L 670.60 1201.30 L 673.70 1204.40 L 677.00 1207.00 L 680.60 1209.40 L 688.50 1213.10 L 698.90 1216.20 L 705.20 1217.50 L 713.40 1218.60 L 721.60 1219.30 L 729.90 1219.60 L 738.20 1219.50 L 746.40 1218.90 L 754.60 1217.80 L 760.60 1216.60 L 766.50 1214.90 L 772.30 1212.50 L 780.40 1207.90 L 787.60 1202.20 L 790.80 1198.90 L 793.70 1195.30 L 796.30 1191.50 L 798.50 1187.30 L 823.30 1190.80 L 848.20 1193.50 L 880.80 1195.90 L 891.60 1196.20 L 902.50 1196.10 L 921.70 1194.60 L 935.60 1192.30 L 946.20 1188.90 L 951.20 1186.60 L 956.00 1183.80 L 960.60 1180.50 L 966.70 1175.00 L 970.20 1173.10 L 999.30 1168.30 L 1013.70 1165.20 L 1028.00 1161.60 L 1037.40 1158.80 L 1055.80 1152.10 L 1066.40 1155.10 L 1082.70 1158.50 L 1095.60 1161.90 L 1110.70 1166.90 L 1118.00 1169.90 L 1127.40 1174.80 L 1134.50 1179.70 L 1136.80 1182.10 L 1139.00 1186.00 L 1139.70 1188.10 L 1139.90 1190.20 L 1139.80 1192.40 L 1139.10 1194.70 L 1135.40 1199.50 L 1133.10 1201.50 L 1129.40 1204.10 L 1125.40 1206.40 L 1117.20 1210.40 L 1109.30 1213.50 L 1093.00 1218.70 L 1080.70 1222.00 L 1055.60 1227.40 L 1020.80 1233.30 L 998.50 1236.40 L 976.10 1239.20 L 931.30 1243.60 L 875.10 1247.60 L 841.40 1249.30 L 810.80 1250.60 L 749.40 1252.10 L 703.40 1252.40 L 657.40 1252.30 L 612.80 1251.50 L 568.30 1250.20 L 509.00 1247.30 L 479.40 1245.30 L 449.80 1242.80 L 420.20 1239.80 L 390.70 1236.40 L 371.30 1233.70 L 338.90 1228.50 L 313.20 1223.30 L 300.50 1220.20 L 287.90 1216.50 L 275.50 1212.50 L 266.70 1208.70 L 258.50 1204.20 L 254.70 1201.30 L 250.20 1196.50 L 248.70 1193.00 L 248.40 1191.10 L 248.70 1187.30 L 250.20 1183.80 L 251.40 1182.30 L 254.70 1179.10 L 258.40 1176.40 L 266.50 1172.00 L 274.80 1168.30 L 292.60 1162.40 L 315.30 1156.60 L 329.00 1153.80 L 356.70 1149.00 L 374.50 1146.40 L 383.50 1145.20 L 392.50 1144.50 L 392.70 1142.90 Z" fill="#b8b7b5" fill-rule="nonzero" node-id="106" stroke="none" target-height="109.5" target-width="891.5" target-x="248.4" target-y="1142.9"></path><path d="M 950.40 192.30 L 978.00 207.20 L 991.60 215.10 L 1004.80 223.50 L 977.30 274.70 L 968.50 291.90 L 964.80 290.00 L 941.10 275.50 L 927.90 268.20 L 914.40 261.30 L 916.20 255.60 L 918.50 250.50 L 934.20 221.30 L 950.40 192.30 Z" fill="#897159" fill-rule="nonzero" node-id="108" stroke="none" target-height="99.59999" target-width="90.39996" target-x="914.4" target-y="192.3"></path><path d="M 967.80 307.30 L 969.10 304.30 L 970.20 303.00 L 971.40 302.10 L 972.90 301.60 L 977.90 302.20 L 984.20 304.20 L 988.60 306.40 L 992.80 309.20 L 996.60 312.40 L 999.90 316.10 L 1000.40 317.10 L 1000.30 317.90 L 997.60 320.90 L 993.20 317.60 L 983.60 312.20 L 978.50 310.00 L 973.30 308.40 L 967.80 307.30 Z" fill="#897159" fill-rule="nonzero" node-id="110" stroke="none" target-height="19.299988" target-width="32.600037" target-x="967.8" target-y="301.6"></path><path d="M 376.20 315.90 L 380.00 314.00 L 383.90 312.50 L 388.10 311.40 L 392.30 310.90 L 396.50 310.70 L 400.80 311.10 L 405.00 311.90 L 409.00 313.10 L 413.00 314.80 L 406.00 321.80 L 402.50 320.70 L 398.90 320.00 L 395.30 319.80 L 391.60 320.00 L 388.00 320.60 L 384.50 321.70 L 381.20 323.20 L 378.20 325.20 L 373.60 329.70 L 372.10 332.00 L 371.00 334.50 L 369.70 339.80 L 369.80 345.30 L 370.30 348.00 L 372.20 353.80 L 372.90 357.00 L 372.80 358.60 L 372.20 360.20 L 369.70 363.70 L 365.70 358.90 L 364.00 356.20 L 361.60 350.30 L 360.40 344.10 L 360.60 337.70 L 362.20 331.80 L 365.10 326.40 L 368.90 321.60 L 372.40 318.50 L 376.20 315.90 Z" fill="#897159" fill-rule="nonzero" node-id="112" stroke="none" target-height="53" target-width="52.600006" target-x="360.4" target-y="310.7"></path><path d="M 968.40 314.90 L 972.50 315.90 L 976.30 317.40 L 980.00 319.20 L 990.70 325.70 L 987.90 331.90 L 875.20 536.40 L 854.50 573.10 L 826.60 621.50 L 809.00 651.00 L 757.30 740.00 L 727.80 791.80 L 720.70 794.10 L 713.30 795.60 L 707.60 791.00 L 704.60 788.90 L 701.30 787.20 L 703.60 782.00 L 706.40 777.00 L 765.60 676.20 L 841.20 545.50 L 859.40 512.90 L 968.40 314.90 Z" fill="#897159" fill-rule="nonzero" node-id="114" stroke="none" target-height="480.69998" target-width="289.40002" target-x="701.3" target-y="314.9"></path><path d="M 430.10 357.90 L 437.70 353.20 L 445.50 348.90 L 453.60 345.10 L 461.90 341.80 L 470.30 339.00 L 478.90 336.60 L 487.60 334.50 L 496.40 332.90 L 508.20 331.20 L 520.10 330.20 L 531.90 329.80 L 543.60 329.90 L 555.20 330.50 L 566.90 331.70 L 578.40 333.30 L 589.90 335.50 L 601.30 338.20 L 612.50 341.40 L 623.50 345.20 L 644.00 353.90 L 662.90 363.40 L 672.20 368.70 L 681.20 374.30 L 689.90 380.30 L 698.30 386.70 L 706.50 393.50 L 714.50 401.20 L 722.00 409.30 L 729.20 417.80 L 736.10 426.50 L 749.10 444.40 L 763.50 467.00 L 767.90 474.80 L 771.70 483.90 L 773.00 488.70 L 774.30 496.00 L 775.10 503.40 L 775.60 518.20 L 734.60 516.40 L 734.10 506.20 L 733.00 496.00 L 731.40 485.90 L 729.30 475.80 L 726.60 465.90 L 723.50 456.10 L 717.60 441.90 L 710.50 428.40 L 706.40 421.90 L 701.90 415.70 L 697.10 409.70 L 692.00 403.90 L 685.00 397.00 L 677.70 390.50 L 670.10 384.40 L 662.10 378.70 L 653.80 373.40 L 645.30 368.60 L 636.60 364.20 L 627.60 360.30 L 616.20 356.20 L 604.70 352.90 L 593.00 350.10 L 581.20 347.90 L 569.30 346.30 L 557.30 345.30 L 545.30 344.70 L 533.20 344.70 L 521.10 345.20 L 509.10 346.10 L 497.20 347.50 L 485.30 349.30 L 463.60 353.80 L 452.90 356.60 L 444.90 359.10 L 429.40 365.00 L 421.80 368.50 L 411.80 373.80 L 408.40 375.20 L 411.50 371.80 L 415.00 368.70 L 430.10 357.90 Z" fill="#897159" fill-rule="nonzero" node-id="116" stroke="none" target-height="188.40002" target-width="367.19998" target-x="408.4" target-y="329.8"></path><path d="M 777.10 334.40 L 783.90 332.70 L 787.40 332.40 L 790.90 332.40 L 797.80 333.60 L 801.10 334.80 L 804.20 336.30 L 807.20 338.20 L 810.40 340.70 L 813.30 343.70 L 815.70 347.00 L 817.70 350.60 L 819.30 354.40 L 820.30 358.40 L 820.90 362.50 L 820.90 366.60 L 820.50 370.70 L 819.70 374.40 L 817.40 380.40 L 814.60 384.50 L 812.80 386.20 L 810.70 387.50 L 808.20 388.50 L 811.00 380.10 L 811.90 376.30 L 812.50 372.50 L 812.60 368.60 L 812.10 364.70 L 811.10 360.90 L 808.60 355.20 L 805.00 350.10 L 800.30 345.80 L 795.00 342.70 L 789.10 341.00 L 786.00 340.70 L 782.80 340.90 L 778.10 341.80 L 772.90 344.50 L 770.00 346.60 L 764.10 342.10 L 770.50 337.90 L 777.10 334.40 Z" fill="#897159" fill-rule="nonzero" node-id="118" stroke="none" target-height="56.100006" target-width="56.80005" target-x="764.1" target-y="332.4"></path><path d="M 517.90 480.20 L 526.60 480.60 L 531.00 481.20 L 535.30 482.00 L 539.50 483.30 L 543.50 485.10 L 543.10 489.70 L 525.00 485.70 L 522.80 484.90 L 520.90 483.70 L 517.90 480.20 Z" fill="#897159" fill-rule="nonzero" node-id="120" stroke="none" target-height="9.5" target-width="25.599976" target-x="517.9" target-y="480.2"></path><path d="M 734.30 523.70 L 754.50 524.60 L 774.60 526.00 L 773.00 536.90 L 771.70 542.30 L 770.10 547.60 L 765.60 557.70 L 757.40 555.50 L 732.30 549.90 L 734.30 523.70 Z" fill="#897159" fill-rule="nonzero" node-id="122" stroke="none" target-height="34" target-width="42.299988" target-x="732.3" target-y="523.7"></path><path d="M 730.50 557.00 L 761.80 564.40 L 757.90 570.90 L 753.70 577.20 L 749.10 583.30 L 744.20 589.10 L 739.00 594.60 L 733.40 599.80 L 723.90 593.50 L 714.10 587.60 L 716.90 584.90 L 719.50 582.00 L 721.60 578.70 L 724.40 573.60 L 726.70 568.10 L 730.50 557.00 Z" fill="#897159" fill-rule="nonzero" node-id="124" stroke="none" target-height="42.799988" target-width="47.700012" target-x="714.1" target-y="557"></path><path d="M 708.50 592.90 L 715.20 596.70 L 728.00 605.20 L 721.40 610.50 L 714.60 615.50 L 707.60 620.00 L 700.30 624.30 L 689.50 629.50 L 666.70 637.40 L 638.20 644.80 L 628.60 646.70 L 618.90 648.30 L 609.10 649.20 L 620.20 645.70 L 638.60 639.00 L 652.70 632.50 L 662.80 627.20 L 672.80 621.40 L 685.50 612.90 L 697.50 603.50 L 708.50 592.90 Z" fill="#897159" fill-rule="nonzero" node-id="126" stroke="none" target-height="56.299988" target-width="118.900024" target-x="609.1" target-y="592.9"></path><path d="M 494.90 656.50 L 521.90 661.30 L 531.00 662.50 L 540.10 663.40 L 559.80 664.10 L 570.30 663.90 L 591.20 662.50 L 601.70 661.20 L 629.50 656.90 L 635.40 656.30 L 610.50 667.10 L 597.80 672.00 L 585.00 676.40 L 572.00 680.30 L 558.80 683.70 L 556.50 684.20 L 554.10 684.30 L 544.60 683.50 L 542.20 683.60 L 539.90 684.20 L 524.30 676.00 L 516.70 671.40 L 494.90 656.50 Z" fill="#897159" fill-rule="nonzero" node-id="128" stroke="none" target-height="28" target-width="140.50003" target-x="494.9" target-y="656.3"></path><path d="M 708.90 880.70 L 712.10 874.10 L 714.50 865.30 L 717.70 837.90 L 718.70 841.70 L 719.20 845.50 L 720.40 862.00 L 720.80 888.40 L 711.90 891.30 L 707.30 892.20 L 702.60 892.50 L 697.90 892.30 L 693.30 891.40 L 696.40 890.40 L 702.20 887.60 L 704.80 885.70 L 707.00 883.40 L 708.90 880.70 Z" fill="#897159" fill-rule="nonzero" node-id="130" stroke="none" target-height="54.599976" target-width="27.5" target-x="693.3" target-y="837.9"></path><path d="M 387.10 870.80 L 388.90 868.00 L 395.00 876.10 L 397.30 878.60 L 399.10 880.00 L 403.00 881.80 L 409.50 883.50 L 405.60 884.50 L 401.80 885.00 L 397.80 885.10 L 386.10 884.10 L 386.40 874.00 L 387.10 870.80 Z" fill="#897159" fill-rule="nonzero" node-id="132" stroke="none" target-height="17.099976" target-width="23.399994" target-x="386.1" target-y="868"></path><path d="M 651.80 882.00 L 653.30 881.40 L 657.80 885.70 L 662.60 889.80 L 667.70 893.40 L 673.00 896.80 L 647.90 938.90 L 617.10 991.90 L 548.40 1108.10 L 495.70 1199.30 L 492.90 1203.50 L 491.10 1205.30 L 488.20 1205.80 L 480.30 1204.90 L 478.20 1204.10 L 476.20 1202.90 L 473.70 1200.60 L 471.70 1197.80 L 470.10 1195.00 L 469.90 1193.00 L 470.30 1192.00 L 577.30 1008.00 L 651.80 882.00 Z" fill="#897159" fill-rule="nonzero" node-id="134" stroke="none" target-height="324.40002" target-width="203.1" target-x="469.9" target-y="881.4"></path><path d="M 1149.90 1030.90 L 1152.10 1027.30 L 1157.90 1016.00 L 1162.40 1008.90 L 1161.80 1014.40 L 1159.40 1025.20 L 1154.10 1040.90 L 1148.20 1054.30 L 1141.10 1067.00 L 1135.60 1075.00 L 1129.70 1082.70 L 1123.30 1090.10 L 1116.60 1097.20 L 1109.60 1103.90 L 1102.30 1110.30 L 1095.20 1116.10 L 1087.70 1121.40 L 1080.00 1126.30 L 1072.10 1130.80 L 1061.20 1136.30 L 1050.00 1141.30 L 1038.60 1145.60 L 1028.70 1148.90 L 1008.70 1154.30 L 988.30 1158.50 L 978.00 1160.00 L 981.80 1152.00 L 985.00 1143.90 L 987.80 1135.60 L 990.00 1127.20 L 993.70 1110.10 L 997.70 1084.20 L 999.70 1086.40 L 1001.00 1087.00 L 1015.60 1088.30 L 1028.70 1088.70 L 1037.40 1088.60 L 1046.10 1088.00 L 1062.00 1085.90 L 1076.40 1082.40 L 1083.40 1080.20 L 1090.40 1077.60 L 1103.80 1071.30 L 1116.10 1064.20 L 1121.70 1060.40 L 1132.30 1051.70 L 1137.20 1046.90 L 1141.70 1041.90 L 1146.00 1036.50 L 1149.90 1030.90 Z" fill="#897159" fill-rule="nonzero" node-id="136" stroke="none" target-height="151.09998" target-width="184.40002" target-x="978" target-y="1008.9"></path><path d="M 669.60 1081.00 L 693.20 1088.90 L 716.30 1098.30 L 713.00 1129.20 L 712.20 1127.70 L 710.10 1125.50 L 697.90 1118.80 L 694.30 1116.30 L 687.90 1110.50 L 684.10 1106.10 L 680.70 1101.50 L 677.60 1096.50 L 673.30 1088.80 L 669.60 1081.00 Z" fill="#897159" fill-rule="nonzero" node-id="138" stroke="none" target-height="48.19995" target-width="46.700012" target-x="669.6" target-y="1081"></path><path d="M 562.70 246.40 L 574.60 244.40 L 586.50 243.00 L 598.50 242.20 L 620.40 241.90 L 640.10 242.70 L 649.90 243.70 L 659.60 245.10 L 669.30 247.00 L 678.80 249.30 L 688.20 252.20 L 697.50 255.60 L 706.20 259.20 L 714.70 263.20 L 723.00 267.60 L 731.10 272.40 L 739.00 277.50 L 746.60 283.00 L 754.00 288.80 L 764.20 297.70 L 765.50 299.30 L 766.50 301.20 L 749.40 308.80 L 740.40 313.90 L 733.90 319.10 L 734.30 321.50 L 736.20 323.90 L 737.80 325.10 L 749.00 331.70 L 756.70 336.70 L 770.00 346.60 L 776.80 352.50 L 783.30 358.70 L 789.40 365.20 L 795.20 372.10 L 800.50 379.40 L 808.50 392.10 L 814.20 402.80 L 818.90 413.30 L 820.90 415.20 L 823.30 415.70 L 826.70 423.60 L 830.50 431.20 L 843.00 453.50 L 854.10 474.90 L 858.20 484.30 L 859.80 489.20 L 855.80 497.00 L 816.50 566.20 L 771.20 644.90 L 767.60 650.40 L 756.20 655.30 L 744.70 659.80 L 733.00 663.90 L 721.20 667.60 L 705.40 671.90 L 689.30 675.60 L 673.10 678.80 L 656.80 681.40 L 640.50 683.60 L 608.70 686.60 L 604.80 686.60 L 601.00 686.20 L 615.60 681.30 L 630.20 676.10 L 639.70 672.20 L 658.40 663.50 L 667.30 658.50 L 676.00 653.00 L 688.60 643.90 L 693.00 641.20 L 706.80 633.90 L 717.50 627.30 L 723.50 623.00 L 736.50 612.50 L 738.30 611.90 L 742.10 611.20 L 742.50 609.20 L 744.10 605.80 L 745.90 603.50 L 751.90 597.20 L 763.40 582.90 L 770.30 572.70 L 773.30 567.40 L 801.70 575.30 L 803.00 572.40 L 803.20 570.90 L 802.90 569.30 L 794.80 566.00 L 778.00 561.10 L 779.00 557.70 L 784.00 544.60 L 785.70 537.90 L 786.90 531.10 L 788.00 527.90 L 797.80 528.70 L 812.50 530.80 L 818.30 531.00 L 819.60 530.30 L 820.10 529.20 L 820.30 526.60 L 819.90 525.50 L 818.40 524.60 L 813.30 523.10 L 800.70 521.20 L 788.00 519.90 L 787.30 501.90 L 786.50 495.90 L 785.00 488.60 L 782.90 481.40 L 780.20 474.40 L 777.00 467.60 L 773.50 461.00 L 762.80 444.20 L 755.90 433.90 L 748.50 423.90 L 740.90 414.10 L 732.80 404.70 L 724.40 395.50 L 717.70 388.80 L 710.70 382.40 L 703.40 376.30 L 688.10 365.10 L 680.10 360.00 L 663.50 350.60 L 645.10 341.60 L 635.00 337.30 L 624.70 333.50 L 614.20 330.10 L 603.60 327.10 L 592.90 324.50 L 582.10 322.40 L 571.30 320.80 L 560.40 319.60 L 549.30 318.90 L 528.60 318.80 L 518.20 319.30 L 507.80 320.20 L 497.50 321.60 L 487.20 323.40 L 477.10 325.60 L 467.10 328.50 L 457.30 331.80 L 443.10 337.90 L 436.10 341.50 L 429.30 345.50 L 413.30 356.50 L 405.50 362.40 L 398.00 368.60 L 390.90 375.30 L 384.10 382.20 L 379.30 387.70 L 374.90 393.50 L 370.80 399.60 L 367.10 405.90 L 364.20 411.10 L 361.70 416.50 L 359.60 422.10 L 357.90 427.80 L 356.60 433.60 L 355.70 439.50 L 355.30 445.40 L 355.40 451.30 L 355.90 457.30 L 356.30 459.70 L 359.10 469.10 L 359.50 471.50 L 351.10 485.20 L 345.30 496.00 L 342.70 502.50 L 338.50 515.70 L 307.90 520.30 L 306.20 518.90 L 305.90 510.10 L 306.20 501.30 L 306.80 495.40 L 307.80 489.60 L 309.30 483.90 L 313.60 472.50 L 316.20 466.90 L 320.70 458.90 L 325.60 451.10 L 336.30 436.10 L 340.20 430.00 L 358.70 398.70 L 364.90 388.80 L 371.60 379.20 L 378.70 369.90 L 394.30 350.80 L 411.20 331.30 L 420.10 321.90 L 429.40 312.90 L 439.00 304.30 L 447.30 298.10 L 455.80 292.20 L 464.50 286.60 L 477.90 278.80 L 491.60 271.40 L 502.90 265.90 L 514.40 260.90 L 526.20 256.30 L 535.10 253.20 L 544.20 250.60 L 553.40 248.30 L 562.70 246.40 Z" fill="#242424" fill-rule="nonzero" node-id="140" stroke="none" target-height="444.69998" target-width="553.9" target-x="305.9" target-y="241.9"></path><path d="M 307.10 527.50 L 317.00 525.40 L 337.20 522.90 L 338.00 539.50 L 339.50 548.70 L 339.70 551.80 L 337.80 553.20 L 318.90 561.40 L 316.30 556.00 L 311.90 544.90 L 309.30 536.30 L 307.10 527.50 Z" fill="#242424" fill-rule="nonzero" node-id="142" stroke="none" target-height="38.5" target-width="32.600006" target-x="307.1" target-y="522.9"></path><path d="M 874.40 562.30 L 877.10 557.20 L 878.70 554.90 L 880.90 552.90 L 879.50 559.50 L 877.60 565.90 L 875.30 572.10 L 872.50 578.20 L 869.40 584.00 L 862.00 595.20 L 853.50 605.40 L 849.20 608.40 L 850.50 604.90 L 852.20 601.70 L 859.90 588.70 L 874.40 562.30 Z" fill="#242424" fill-rule="nonzero" node-id="144" stroke="none" target-height="55.5" target-width="31.700012" target-x="849.2" target-y="552.9"></path><path d="M 322.70 568.20 L 335.70 561.90 L 342.60 560.00 L 344.00 561.70 L 349.90 572.40 L 359.80 586.10 L 342.70 596.80 L 331.80 583.10 L 325.50 573.30 L 322.70 568.20 Z" fill="#242424" fill-rule="nonzero" node-id="146" stroke="none" target-height="36.799988" target-width="37.099976" target-x="322.7" target-y="560"></path><path d="M 348.50 602.60 L 355.80 596.70 L 359.90 594.20 L 364.10 592.10 L 367.10 594.30 L 376.30 603.40 L 383.30 609.40 L 390.50 615.10 L 405.70 625.50 L 413.60 630.30 L 425.80 636.90 L 438.10 643.10 L 454.20 651.80 L 470.50 660.00 L 499.20 673.60 L 502.00 675.40 L 504.50 677.70 L 496.50 676.50 L 488.50 674.80 L 472.70 670.40 L 457.10 665.50 L 443.90 660.70 L 430.90 655.50 L 418.00 649.80 L 399.20 640.10 L 381.10 629.20 L 372.50 623.20 L 364.20 616.70 L 356.20 609.90 L 348.50 602.60 Z" fill="#242424" fill-rule="nonzero" node-id="148" stroke="none" target-height="85.60004" target-width="156" target-x="348.5" target-y="592.1"></path><path d="M 819.80 654.30 L 821.30 652.50 L 822.60 652.30 L 826.30 654.90 L 831.40 660.10 L 837.70 669.00 L 841.10 674.70 L 847.10 686.50 L 850.90 695.70 L 857.20 714.50 L 860.00 724.00 L 863.60 738.20 L 866.70 752.50 L 871.50 781.30 L 877.20 823.10 L 884.20 861.30 L 886.60 871.20 L 892.40 890.70 L 899.50 909.80 L 910.30 933.50 L 917.30 947.80 L 924.70 961.80 L 932.70 975.50 L 938.00 983.80 L 943.70 991.70 L 949.90 999.30 L 956.50 1006.50 L 963.40 1013.40 L 970.70 1019.90 L 981.30 1028.20 L 983.00 1030.20 L 985.10 1037.20 L 986.60 1044.30 L 987.50 1051.50 L 987.90 1058.80 L 987.80 1066.00 L 985.70 1085.80 L 983.80 1098.30 L 979.30 1123.20 L 977.00 1131.60 L 974.20 1139.90 L 972.10 1145.30 L 966.80 1155.70 L 963.70 1160.60 L 960.10 1165.10 L 956.10 1169.40 L 950.10 1174.00 L 941.70 1178.20 L 936.40 1180.10 L 925.30 1182.50 L 910.30 1184.10 L 891.40 1184.40 L 880.10 1184.00 L 857.40 1182.70 L 840.50 1181.10 L 806.70 1176.90 L 789.80 1174.30 L 773.10 1171.10 L 756.50 1167.60 L 744.00 1164.20 L 737.90 1162.30 L 731.90 1160.00 L 724.30 1156.10 L 720.80 1153.70 L 723.70 1133.70 L 726.00 1113.60 L 729.60 1073.30 L 733.30 1022.30 L 734.70 984.80 L 734.60 964.40 L 733.10 903.10 L 732.90 870.70 L 732.00 850.60 L 729.80 834.80 L 728.00 827.00 L 725.70 819.40 L 722.70 812.00 L 721.50 807.50 L 728.20 805.90 L 735.00 803.90 L 739.40 802.20 L 743.50 800.10 L 750.10 795.50 L 754.80 790.40 L 756.70 787.40 L 758.10 784.60 L 759.00 781.70 L 759.50 778.70 L 759.80 774.20 L 759.20 760.40 L 768.60 743.20 L 819.80 654.30 Z" fill="#242424" fill-rule="nonzero" node-id="150" stroke="none" target-height="532.10004" target-width="267.10004" target-x="720.8" target-y="652.3"></path><path d="M 418.40 667.70 L 419.20 666.50 L 420.30 665.90 L 421.50 665.70 L 424.10 666.20 L 436.10 671.80 L 447.10 676.30 L 458.20 680.30 L 469.50 683.80 L 481.00 686.90 L 492.50 689.50 L 504.20 691.50 L 536.90 695.30 L 538.00 695.70 L 539.40 697.10 L 539.80 698.70 L 539.70 700.40 L 539.10 702.00 L 532.80 707.80 L 528.10 712.80 L 523.70 718.10 L 519.60 723.70 L 509.70 739.60 L 504.10 750.70 L 501.80 756.50 L 498.40 767.20 L 497.70 770.90 L 497.50 774.60 L 497.80 778.30 L 498.40 779.80 L 499.30 780.90 L 501.90 782.30 L 503.50 782.50 L 505.00 782.20 L 506.20 780.00 L 508.80 767.90 L 510.90 761.00 L 513.60 754.40 L 516.80 747.90 L 524.10 735.50 L 536.70 718.00 L 539.80 714.70 L 540.80 714.40 L 542.00 714.60 L 541.70 739.30 L 540.80 764.00 L 535.10 875.40 L 532.90 928.20 L 531.90 993.30 L 532.60 1039.50 L 533.30 1054.90 L 521.40 1055.10 L 509.70 1055.70 L 497.90 1056.80 L 486.20 1058.30 L 470.60 1060.90 L 455.20 1064.10 L 439.90 1067.90 L 429.50 1071.10 L 419.40 1074.80 L 409.40 1078.90 L 399.60 1083.70 L 398.70 1068.70 L 399.60 995.90 L 403.50 920.80 L 405.30 895.80 L 412.20 894.30 L 423.70 890.90 L 432.30 886.90 L 436.70 884.10 L 440.80 880.90 L 444.60 877.30 L 449.80 871.50 L 460.80 857.30 L 463.30 852.50 L 463.90 850.30 L 464.40 844.60 L 464.20 841.40 L 463.40 838.20 L 462.30 835.00 L 459.30 829.10 L 460.50 825.80 L 461.30 822.40 L 461.60 818.80 L 461.40 815.30 L 460.70 811.80 L 459.60 808.50 L 457.90 805.50 L 455.70 802.80 L 453.00 800.40 L 449.10 798.30 L 443.60 797.10 L 440.30 796.80 L 439.60 788.90 L 439.10 786.30 L 437.60 783.70 L 435.80 781.40 L 433.50 779.40 L 431.00 777.90 L 428.30 776.80 L 425.40 776.20 L 418.50 776.20 L 410.20 778.00 L 405.30 779.70 L 406.60 774.60 L 413.30 754.50 L 414.60 748.00 L 413.90 746.10 L 412.60 745.10 L 407.80 743.20 L 404.90 749.20 L 402.40 755.50 L 394.10 781.10 L 385.90 795.00 L 383.30 802.10 L 381.90 807.70 L 379.10 824.80 L 376.80 847.80 L 375.90 865.10 L 375.40 882.50 L 375.10 917.30 L 374.00 972.80 L 373.80 1028.40 L 374.20 1056.20 L 375.40 1095.00 L 378.30 1128.20 L 371.60 1127.50 L 358.30 1124.60 L 346.50 1121.00 L 343.90 1119.90 L 341.60 1118.40 L 341.00 1114.60 L 340.80 1110.70 L 340.80 1087.30 L 341.30 1063.90 L 342.30 1040.50 L 345.00 994.60 L 349.10 902.70 L 350.50 883.50 L 352.50 864.30 L 355.00 845.20 L 357.20 830.80 L 359.90 816.60 L 366.20 788.40 L 370.00 774.50 L 374.20 760.60 L 378.90 747.00 L 384.10 733.40 L 388.90 722.00 L 394.00 710.70 L 399.60 699.70 L 405.50 688.80 L 411.70 678.10 L 418.40 667.70 Z" fill="#242424" fill-rule="nonzero" node-id="152" stroke="none" target-height="462.49994" target-width="201.20001" target-x="340.8" target-y="665.7"></path><path d="M 731.40 676.70 L 748.70 670.50 L 757.40 667.70 L 750.40 680.10 L 689.40 784.20 L 681.60 785.10 L 677.80 786.00 L 672.00 788.60 L 668.00 791.90 L 666.70 793.60 L 665.30 797.40 L 664.70 803.50 L 661.00 804.40 L 657.40 805.80 L 654.10 807.60 L 651.10 809.90 L 649.40 811.70 L 648.00 813.80 L 645.80 819.00 L 645.40 821.90 L 645.50 824.90 L 646.10 827.80 L 648.00 833.50 L 645.10 836.00 L 641.20 841.10 L 639.20 845.80 L 638.50 850.80 L 639.10 856.50 L 640.00 859.40 L 645.40 870.60 L 642.90 875.60 L 640.10 880.50 L 573.70 991.80 L 553.70 1025.80 L 547.10 1037.80 L 544.40 1041.50 L 543.80 1028.80 L 543.80 986.00 L 544.20 956.00 L 544.90 926.00 L 546.70 881.00 L 553.80 746.10 L 554.30 723.20 L 554.80 715.60 L 558.60 719.10 L 564.90 728.60 L 569.80 737.00 L 572.60 742.80 L 577.20 754.80 L 578.90 761.00 L 580.10 767.30 L 581.00 777.00 L 582.00 780.10 L 583.00 781.30 L 584.50 782.10 L 586.00 782.40 L 587.50 782.10 L 588.80 781.40 L 589.80 780.30 L 590.50 778.90 L 590.70 777.40 L 590.70 771.90 L 590.30 766.50 L 589.50 761.20 L 588.30 755.90 L 586.20 749.00 L 583.70 742.20 L 580.60 735.60 L 573.60 722.90 L 567.00 712.90 L 558.10 701.70 L 557.80 700.40 L 558.20 699.40 L 559.00 698.50 L 560.10 697.90 L 561.40 697.60 L 573.20 699.20 L 603.50 699.40 L 621.40 698.20 L 648.00 695.10 L 676.10 690.40 L 690.10 687.50 L 717.80 680.70 L 731.40 676.70 Z" fill="#242424" fill-rule="nonzero" node-id="154" stroke="none" target-height="373.8" target-width="213.60004" target-x="543.8" target-y="667.7"></path><path d="M 683.20 901.50 L 693.20 903.10 L 703.30 903.80 L 709.90 903.20 L 718.10 901.20 L 720.50 901.70 L 722.20 963.10 L 722.20 987.30 L 721.20 1019.70 L 717.10 1085.10 L 697.00 1078.20 L 676.70 1071.70 L 663.10 1067.80 L 649.30 1064.30 L 635.50 1061.20 L 625.00 1059.30 L 603.90 1056.60 L 593.30 1055.90 L 599.30 1044.90 L 618.00 1012.60 L 683.20 901.50 Z" fill="#242424" fill-rule="nonzero" node-id="156" stroke="none" target-height="183.89996" target-width="128.90002" target-x="593.3" target-y="901.2"></path><path d="M 369.30 298.60 L 373.90 295.80 L 378.60 293.70 L 383.50 292.10 L 388.60 291.10 L 393.70 290.50 L 399.00 290.50 L 404.20 290.90 L 409.40 291.80 L 414.50 293.10 L 419.50 294.80 L 424.20 296.80 L 428.80 299.30 L 413.00 314.80 L 409.00 313.10 L 405.00 311.90 L 400.80 311.10 L 396.50 310.70 L 392.30 310.90 L 388.10 311.40 L 383.90 312.50 L 380.00 314.00 L 376.20 315.90 L 372.40 318.50 L 368.90 321.60 L 366.90 323.90 L 363.50 329.00 L 361.20 334.70 L 360.60 337.70 L 360.40 344.10 L 360.80 347.20 L 362.60 353.30 L 365.70 358.90 L 369.70 363.70 L 358.50 378.90 L 356.00 375.60 L 351.80 368.40 L 348.90 360.50 L 347.90 356.50 L 346.90 348.20 L 347.10 338.10 L 347.90 332.30 L 349.30 326.60 L 351.20 321.00 L 353.70 315.80 L 356.80 310.80 L 359.50 307.30 L 362.50 304.10 L 365.70 301.20 L 369.30 298.60 Z" fill="#c19c6b" fill-rule="nonzero" node-id="158" stroke="none" target-height="88.399994" target-width="81.899994" target-x="346.9" target-y="290.5"></path><path d="M 741.00 327.10 L 746.60 323.20 L 752.50 319.70 L 758.70 316.60 L 765.00 314.00 L 771.50 311.90 L 778.20 310.30 L 783.30 309.60 L 793.50 309.20 L 802.50 310.10 L 810.10 312.20 L 817.20 315.60 L 823.50 320.20 L 826.30 322.90 L 831.50 329.60 L 833.80 333.50 L 837.50 341.70 L 839.10 347.50 L 840.20 353.40 L 840.70 359.40 L 840.60 365.40 L 839.90 371.40 L 838.70 377.30 L 835.80 385.40 L 833.90 389.20 L 829.20 396.40 L 823.40 402.90 L 816.80 408.30 L 811.40 397.40 L 805.30 387.00 L 809.70 383.90 L 808.20 388.50 L 810.70 387.50 L 812.80 386.20 L 814.60 384.50 L 817.40 380.40 L 818.40 378.10 L 820.50 370.70 L 820.90 366.60 L 820.90 362.50 L 820.30 358.40 L 819.30 354.40 L 817.70 350.60 L 815.70 347.00 L 813.30 343.70 L 810.40 340.70 L 804.20 336.30 L 801.10 334.80 L 797.80 333.60 L 790.90 332.40 L 783.90 332.70 L 777.10 334.40 L 770.50 337.90 L 764.10 342.10 L 756.70 336.70 L 749.00 331.70 L 741.00 327.10 Z" fill="#c19c6b" fill-rule="nonzero" node-id="160" stroke="none" target-height="99.099976" target-width="99.70001" target-x="741" target-y="309.2"></path><path d="M 485.30 349.30 L 497.20 347.50 L 509.10 346.10 L 521.10 345.20 L 533.20 344.70 L 545.30 344.70 L 557.30 345.30 L 569.30 346.30 L 581.20 347.90 L 593.00 350.10 L 604.70 352.90 L 616.20 356.20 L 627.60 360.30 L 636.60 364.20 L 645.30 368.60 L 653.80 373.40 L 662.10 378.70 L 670.10 384.40 L 677.70 390.50 L 685.00 397.00 L 692.00 403.90 L 697.10 409.70 L 701.90 415.70 L 706.40 421.90 L 714.20 435.10 L 720.70 448.90 L 723.50 456.10 L 726.60 465.90 L 729.30 475.80 L 731.40 485.90 L 733.00 496.00 L 734.10 506.20 L 734.60 516.40 L 705.60 516.30 L 691.10 516.80 L 676.70 517.80 L 669.90 508.10 L 666.10 503.60 L 662.00 499.40 L 664.90 496.00 L 667.40 492.20 L 669.40 488.10 L 670.90 483.80 L 671.70 477.80 L 671.60 474.70 L 671.10 470.90 L 670.10 467.30 L 668.50 463.80 L 666.50 460.60 L 664.10 457.70 L 661.30 455.10 L 658.20 452.80 L 654.90 451.00 L 651.40 449.60 L 647.70 448.70 L 644.00 448.40 L 635.90 449.20 L 632.00 450.40 L 628.20 452.20 L 624.70 454.50 L 621.60 457.20 L 618.80 460.30 L 616.40 463.80 L 614.60 467.40 L 613.30 471.40 L 612.40 477.50 L 613.10 483.90 L 612.40 482.00 L 606.50 479.40 L 600.40 477.40 L 578.70 472.20 L 560.20 468.90 L 546.20 467.30 L 532.10 466.10 L 510.30 465.70 L 499.30 466.00 L 488.50 466.90 L 474.10 469.20 L 459.90 473.00 L 452.50 474.50 L 453.40 471.20 L 454.10 464.40 L 453.40 457.70 L 451.40 451.30 L 449.80 448.40 L 447.80 445.50 L 445.30 442.60 L 442.40 440.30 L 439.20 438.30 L 435.80 436.90 L 432.20 435.90 L 428.40 435.30 L 424.60 435.30 L 420.90 435.70 L 417.20 436.60 L 413.70 437.90 L 410.40 439.70 L 407.40 442.00 L 404.50 445.00 L 402.10 448.30 L 400.10 451.90 L 398.70 455.80 L 397.90 459.80 L 397.60 464.00 L 397.90 467.70 L 398.70 471.40 L 400.00 474.90 L 401.70 478.20 L 403.80 481.30 L 406.40 484.10 L 409.20 486.50 L 412.30 488.60 L 415.70 490.20 L 412.70 491.70 L 409.90 493.60 L 407.40 495.80 L 404.00 499.50 L 401.00 503.60 L 395.90 512.40 L 385.90 512.60 L 351.90 514.70 L 353.70 506.50 L 357.50 496.90 L 360.30 491.30 L 372.90 469.50 L 370.80 466.40 L 369.20 463.10 L 368.10 459.60 L 367.00 452.30 L 367.10 442.80 L 367.60 437.40 L 369.10 431.20 L 371.00 425.20 L 373.30 419.30 L 376.00 413.60 L 380.20 406.30 L 385.00 399.40 L 390.30 392.80 L 396.00 386.50 L 402.00 380.60 L 408.40 375.20 L 411.80 373.80 L 421.80 368.50 L 429.40 365.00 L 444.90 359.10 L 452.90 356.60 L 463.60 353.80 L 485.30 349.30 Z M 420.10 389.20 L 415.40 391.80 L 413.20 393.50 L 411.60 395.40 L 411.00 396.90 L 410.70 398.60 L 411.00 400.60 L 414.70 401.80 L 418.30 399.10 L 422.10 396.80 L 424.80 395.60 L 427.70 394.80 L 430.70 394.40 L 433.30 394.70 L 442.80 399.00 L 445.40 399.40 L 447.40 395.70 L 444.20 391.70 L 442.20 390.10 L 437.60 387.90 L 435.10 387.30 L 431.30 386.80 L 427.40 387.00 L 424.90 387.50 L 420.10 389.20 Z M 627.40 404.70 L 626.50 405.80 L 626.10 406.90 L 626.10 409.40 L 626.80 411.90 L 629.80 411.40 L 641.00 407.80 L 646.30 407.60 L 650.40 408.60 L 653.20 410.00 L 661.30 415.60 L 663.30 413.90 L 664.60 411.90 L 664.70 410.80 L 664.30 409.40 L 662.00 406.70 L 659.40 404.50 L 656.60 402.60 L 653.50 401.20 L 650.20 400.20 L 646.80 399.60 L 643.40 399.40 L 640.00 399.60 L 636.60 400.30 L 633.30 401.40 L 630.30 402.80 L 627.40 404.70 Z" fill="#c19c6b" fill-rule="nonzero" node-id="162" stroke="none" target-height="173.09998" target-width="382.69998" target-x="351.9" target-y="344.7"></path><path d="M 350.10 521.80 L 364.30 520.70 L 392.90 519.60 L 389.90 531.80 L 388.90 538.00 L 368.20 544.00 L 352.80 548.90 L 351.30 542.20 L 350.40 535.50 L 350.00 528.70 L 350.10 521.80 Z" fill="#c19c6b" fill-rule="nonzero" node-id="164" stroke="none" target-height="29.300049" target-width="42.899994" target-x="350" target-y="519.6"></path><path d="M 680.60 524.20 L 707.50 523.50 L 734.30 523.70 L 732.30 549.90 L 701.90 544.70 L 686.70 542.50 L 683.70 540.20 L 680.60 524.20 Z" fill="#c19c6b" fill-rule="nonzero" node-id="166" stroke="none" target-height="26.400024" target-width="53.700012" target-x="680.6" target-y="523.5"></path><path d="M 354.90 555.40 L 371.60 549.90 L 388.70 545.20 L 390.20 555.70 L 392.10 566.20 L 394.40 565.70 L 375.80 575.80 L 369.50 578.90 L 361.50 567.60 L 357.90 561.60 L 354.90 555.40 Z" fill="#c19c6b" fill-rule="nonzero" node-id="168" stroke="none" target-height="33.700012" target-width="39.5" target-x="354.9" target-y="545.2"></path><path d="M 683.50 548.80 L 730.50 557.00 L 726.70 568.10 L 724.40 573.60 L 721.60 578.70 L 719.50 582.00 L 716.90 584.90 L 714.10 587.60 L 696.40 578.50 L 678.10 570.40 L 680.90 563.50 L 681.80 559.90 L 683.50 548.80 Z" fill="#c19c6b" fill-rule="nonzero" node-id="170" stroke="none" target-height="38.799988" target-width="52.400024" target-x="678.1" target-y="548.8"></path><path d="M 374.70 585.00 L 384.70 578.80 L 394.90 573.10 L 398.80 579.10 L 403.10 584.80 L 407.80 590.10 L 412.90 595.10 L 418.40 599.70 L 424.10 604.00 L 430.10 607.80 L 436.30 611.30 L 430.00 616.40 L 431.60 618.70 L 428.60 621.50 L 415.40 615.40 L 409.00 611.90 L 396.60 604.20 L 385.10 595.20 L 379.80 590.30 L 374.70 585.00 Z" fill="#c19c6b" fill-rule="nonzero" node-id="172" stroke="none" target-height="48.400024" target-width="61.599976" target-x="374.7" target-y="573.1"></path><path d="M 417.80 787.50 L 421.40 787.20 L 425.00 787.50 L 426.60 788.20 L 427.90 789.50 L 428.40 791.30 L 428.50 794.60 L 425.70 804.60 L 425.60 808.00 L 426.10 809.70 L 428.60 811.10 L 431.50 811.20 L 432.90 810.80 L 436.30 808.80 L 438.70 808.20 L 441.10 808.10 L 443.50 808.50 L 445.80 809.30 L 447.80 810.70 L 449.60 813.00 L 450.40 816.40 L 450.00 823.10 L 442.70 826.50 L 440.90 830.90 L 442.30 834.00 L 447.90 835.20 L 449.60 835.80 L 451.20 836.80 L 452.40 838.30 L 453.10 840.90 L 453.30 846.40 L 453.00 849.20 L 444.40 847.60 L 440.10 847.20 L 435.80 847.40 L 433.60 848.70 L 432.10 851.30 L 431.80 853.10 L 432.20 856.90 L 438.90 857.70 L 445.50 858.10 L 442.90 862.30 L 439.70 866.20 L 436.20 869.90 L 432.30 873.10 L 428.20 876.00 L 423.80 878.50 L 419.10 880.60 L 414.40 882.30 L 409.50 883.50 L 403.00 881.80 L 399.10 880.00 L 397.30 878.60 L 395.00 876.10 L 388.90 868.00 L 387.10 870.80 L 388.20 849.30 L 390.50 828.00 L 392.60 814.00 L 394.90 804.80 L 396.50 800.30 L 400.00 795.90 L 402.10 794.00 L 405.70 791.70 L 409.60 789.80 L 413.70 788.40 L 417.80 787.50 Z" fill="#c19c6b" fill-rule="nonzero" node-id="174" stroke="none" target-height="96.29999" target-width="66.19998" target-x="387.1" target-y="787.2"></path><path d="M 676.00 798.60 L 681.70 797.00 L 687.60 796.50 L 693.30 797.40 L 696.00 798.40 L 698.60 799.80 L 701.00 801.60 L 704.40 804.70 L 707.30 808.20 L 709.90 811.90 L 712.10 815.90 L 714.00 820.10 L 716.60 828.90 L 717.70 837.90 L 714.50 865.30 L 713.30 870.60 L 710.70 877.40 L 708.90 880.70 L 707.00 883.40 L 704.80 885.70 L 702.20 887.60 L 696.40 890.40 L 693.30 891.40 L 687.80 890.10 L 682.50 888.20 L 677.40 885.80 L 672.50 882.80 L 668.10 879.40 L 664.00 875.60 L 658.70 869.00 L 654.60 861.60 L 662.60 863.30 L 665.30 863.10 L 666.40 862.50 L 668.00 860.80 L 668.60 859.10 L 668.60 857.30 L 667.70 855.20 L 666.70 854.40 L 664.00 853.00 L 661.20 852.10 L 649.30 850.00 L 650.20 847.20 L 652.90 842.30 L 664.50 842.20 L 665.30 839.80 L 665.90 837.40 L 665.00 834.40 L 662.50 831.60 L 658.80 828.60 L 656.60 825.70 L 656.20 824.30 L 656.30 820.80 L 656.90 819.40 L 657.80 818.20 L 659.80 816.80 L 662.10 815.70 L 668.40 813.80 L 669.70 814.10 L 671.00 814.70 L 674.60 817.50 L 675.90 818.10 L 677.40 818.30 L 679.10 818.10 L 680.70 817.40 L 682.00 816.20 L 682.90 814.70 L 683.40 813.10 L 683.30 811.30 L 682.30 809.10 L 676.90 801.70 L 676.00 798.60 Z" fill="#c19c6b" fill-rule="nonzero" node-id="176" stroke="none" target-height="94.900024" target-width="68.400024" target-x="649.3" target-y="796.5"></path><path d="M 1142.60 940.00 L 1146.30 937.20 L 1148.40 936.00 L 1152.00 935.00 L 1155.20 935.40 L 1156.70 936.80 L 1158.70 940.10 L 1160.70 945.80 L 1162.60 953.50 L 1164.00 961.20 L 1164.90 968.90 L 1165.40 976.80 L 1165.40 984.70 L 1165.00 992.50 L 1164.20 1000.30 L 1163.00 1008.10 L 1160.00 1012.40 L 1157.90 1016.00 L 1152.10 1027.30 L 1149.90 1030.90 L 1146.00 1036.50 L 1141.70 1041.90 L 1137.20 1046.90 L 1132.30 1051.70 L 1127.10 1056.20 L 1116.10 1064.20 L 1110.20 1067.70 L 1097.10 1074.60 L 1090.40 1077.60 L 1076.40 1082.40 L 1062.00 1085.90 L 1046.10 1088.00 L 1037.40 1088.60 L 1028.70 1088.70 L 1015.60 1088.30 L 1001.00 1087.00 L 999.70 1086.40 L 997.70 1084.20 L 998.70 1075.50 L 999.20 1066.80 L 999.10 1058.10 L 998.60 1049.40 L 997.30 1040.80 L 995.50 1032.30 L 1009.00 1033.90 L 1022.50 1034.70 L 1031.50 1034.10 L 1036.00 1033.40 L 1042.60 1031.70 L 1048.90 1029.40 L 1055.00 1026.60 L 1066.60 1019.90 L 1078.80 1011.10 L 1085.10 1005.80 L 1097.10 994.40 L 1104.60 986.30 L 1111.80 978.00 L 1134.00 949.20 L 1138.20 944.50 L 1142.60 940.00 Z" fill="#c19c6b" fill-rule="nonzero" node-id="178" stroke="none" target-height="153.69995" target-width="169.90002" target-x="995.5" target-y="935"></path><path d="M 479.70 1070.50 L 492.50 1068.70 L 505.40 1067.30 L 514.00 1066.60 L 531.20 1066.30 L 509.20 1102.90 L 498.40 1121.40 L 487.90 1140.10 L 477.20 1136.30 L 456.50 1127.10 L 455.30 1126.90 L 453.30 1127.30 L 452.00 1128.20 L 451.00 1129.50 L 449.50 1132.40 L 455.60 1137.80 L 464.30 1143.00 L 481.00 1150.60 L 469.50 1170.80 L 457.60 1190.90 L 451.70 1192.70 L 449.70 1187.90 L 449.10 1185.30 L 448.30 1177.80 L 447.70 1176.80 L 446.70 1175.90 L 445.10 1175.60 L 443.50 1175.70 L 441.80 1176.30 L 440.50 1177.20 L 439.50 1178.50 L 439.10 1180.10 L 439.30 1184.40 L 441.30 1192.80 L 431.60 1190.90 L 428.50 1189.90 L 426.60 1188.90 L 425.00 1187.60 L 423.50 1186.00 L 422.70 1183.40 L 422.20 1178.20 L 422.50 1174.30 L 424.40 1162.40 L 424.70 1158.50 L 424.50 1154.50 L 422.50 1145.50 L 416.70 1127.90 L 413.20 1115.90 L 407.30 1091.70 L 422.80 1085.00 L 430.70 1082.20 L 442.80 1078.60 L 455.00 1075.40 L 479.70 1070.50 Z" fill="#c19c6b" fill-rule="nonzero" node-id="180" stroke="none" target-height="126.5" target-width="123.900024" target-x="407.3" target-y="1066.3"></path><path d="M 532.30 1159.00 L 545.30 1136.00 L 585.30 1067.30 L 596.10 1067.70 L 606.70 1068.50 L 617.30 1069.80 L 627.90 1071.40 L 641.90 1074.10 L 655.80 1077.30 L 669.60 1081.00 L 673.30 1088.80 L 677.60 1096.50 L 680.70 1101.50 L 684.10 1106.10 L 687.90 1110.50 L 694.30 1116.30 L 697.90 1118.80 L 710.10 1125.50 L 712.20 1127.70 L 713.00 1129.20 L 710.10 1147.30 L 709.50 1155.30 L 710.60 1158.60 L 712.10 1160.70 L 714.00 1162.60 L 718.30 1165.70 L 724.50 1168.90 L 730.80 1171.60 L 737.40 1173.90 L 744.00 1175.90 L 757.50 1179.20 L 779.20 1183.90 L 786.50 1185.20 L 784.20 1188.70 L 781.40 1191.90 L 778.40 1194.80 L 773.30 1198.60 L 767.90 1202.00 L 767.10 1197.40 L 764.90 1190.10 L 761.70 1184.80 L 760.30 1184.30 L 758.70 1184.20 L 757.10 1184.50 L 755.80 1185.20 L 754.90 1186.80 L 754.90 1188.00 L 757.90 1200.40 L 758.30 1204.70 L 742.50 1207.10 L 741.30 1202.90 L 738.60 1196.00 L 735.20 1191.30 L 733.50 1190.70 L 731.70 1190.80 L 730.00 1191.40 L 728.60 1192.50 L 728.40 1194.20 L 729.00 1197.50 L 732.10 1204.90 L 732.80 1207.40 L 716.20 1207.00 L 705.10 1205.70 L 699.70 1204.60 L 694.40 1203.00 L 689.30 1200.90 L 684.40 1198.30 L 681.50 1196.30 L 679.10 1193.90 L 677.00 1191.30 L 673.80 1185.40 L 671.10 1177.30 L 670.10 1172.30 L 667.40 1172.40 L 664.90 1172.80 L 659.90 1174.20 L 646.00 1174.40 L 632.10 1173.90 L 618.30 1173.00 L 604.40 1171.60 L 576.90 1168.10 L 554.40 1164.20 L 532.30 1159.00 Z" fill="#c19c6b" fill-rule="nonzero" node-id="182" stroke="none" target-height="140.09998" target-width="254.20001" target-x="532.3" target-y="1067.3"></path></g></svg>